<?xml version="1.0" encoding="utf-8"?>
<!-- Generator: Adobe Illustrator 24.3.0, SVG Export Plug-In . SVG Version: 6.00 Build 0)  -->
<svg version="1.1" id="mySVG" xmlns="http://www.w3.org/2000/svg" xmlns:xlink="http://www.w3.org/1999/xlink" x="0px" y="0px"
	 viewBox="0 0 595 858.9" style="enable-background:new 0 0 595 858.9;" xml:space="preserve">
<style type="text/css">
	.st0{opacity:0.75;fill:none;stroke:#000000;stroke-miterlimit:10;enable-background:new    ;}
	.st1{font-family:'ArialMT';}
	.st2{font-size:12px;}
	.st3{fill:none;stroke:#000000;stroke-miterlimit:10;}
	.st4{fill:#008080;}
	.st5{font-family:'MicrosoftSansSerif';}
	.st6{font-size:21px;}
	.st7{fill:none;}
	.st8{font-size:9px;}
	.st9{font-size:6px;}
	.st10{fill:none;stroke:#000000;}
	.st11{fill:url(#SVGID_1_);}
	.st12{fill:url(#SVGID_2_);}
	.st13{fill:url(#SVGID_3_);}
	.st14{fill:url(#SVGID_4_);}
	.st15{fill:url(#SVGID_5_);}
	.st16{fill:url(#SVGID_6_);}
	.st17{fill:url(#SVGID_7_);}
	.st18{fill:url(#SVGID_8_);}
	.st19{fill:url(#SVGID_9_);}
	.st20{fill:url(#SVGID_10_);}
	.st21{fill:url(#SVGID_11_);}
	.st22{fill:none;stroke:#000000;stroke-width:1;stroke-miterlimit:3.9999;}
	.st23{fill:none;stroke:#000000;stroke-width:1;stroke-miterlimit:4.0001;}
	.st24{fill:none;stroke:#000000;stroke-width:1;stroke-miterlimit:3.9998;}
	.st25{stroke:#000000;stroke-miterlimit:10;}
</style>
<rect x="30" y="30.9" class="st0" width="534.9" height="800"/>
<text class="st1 st2"> </text>
<text class="st1 st2"> </text>
<text class="st1 st2"> </text>
<line class="st3" x1="164.9" y1="830.9" x2="164.9" y2="30.9"/>
<text transform="matrix(1 0 0 1 35.0813 97.4387)" class="st4 st5 st6">My Life As A </text>
<text transform="matrix(1 0 0 1 35.0813 122.6387)" class="st4 st5 st6">TRAVELLER</text>
<rect x="164.9" y="133.5" class="st7" width="130.5" height="54.2"/>
<text transform="matrix(1 0 0 1 32 139.9287)" class="st4 st5 st8">This visual shows all  </text>
<text transform="matrix(1 0 0 1 32 150.7287)" class="st4 st5 st8">Countries by Happiness Score. </text>
<text transform="matrix(1 0 0 1 32 161.5287)" class="st4 st5 st8">I have annotated some personal </text>
<text transform="matrix(1 0 0 1 32 172.3287)" class="st4 st5 st8">information to see the health of </text>
<text transform="matrix(1 0 0 1 32 183.1287)" class="st4 st5 st8">Countries I have been to.</text>
<rect x="32.2" y="699.9" class="st7" width="130.5" height="101.7"/>
<text transform="matrix(0.9857 0 0 1 32.1797 707.3145)" class="st4 st1 st8">World Happiness Report is </text>
<text transform="matrix(0.9857 0 0 1 32.1797 718.1143)" class="st4 st1 st8">published annualy by the UN </text>
<text transform="matrix(0.9857 0 0 1 32.1797 728.915)" class="st4 st1 st8">based on respondents rating of </text>
<text transform="matrix(0.9857 0 0 1 32.1797 739.7148)" class="st4 st1 st8">their own lives, which the report </text>
<text transform="matrix(0.9857 0 0 1 32.1797 750.5146)" class="st4 st1 st8">also  correlates with various </text>
<text transform="matrix(0.9857 0 0 1 32.1797 761.3145)" class="st4 st1 st8">quality of life factors. </text>
<text transform="matrix(0.9857 0 0 1 32.1797 772.1143)" class="st4 st1 st8">As of March 2023, Finland has </text>
<text transform="matrix(0.9857 0 0 1 32.1797 782.915)" class="st4 st1 st8">been ranked happiest country in </text>
<text transform="matrix(0.9857 0 0 1 32.1797 793.7148)" class="st4 st1 st8">the World 6 times in a row.</text>
<rect x="31.2" y="622.1" class="st7" width="130.5" height="10.2"/>
<text transform="matrix(1 0 0 1 31.2354 629.5172)" class="st4 st1 st8">Countries by Happiness Score</text>
<rect x="33.8" y="672.4" class="st7" width="14.1" height="6.8"/>
<text transform="matrix(1 0 0 1 35.0812 669.6587)" class="st5 st9">1.89</text>
<rect x="143" y="672" class="st7" width="18.9" height="6.8"/>
<text transform="matrix(1 0 0 1 127.1294 680.4664)" class="st5 st9">7.804</text>
<circle class="st4" cx="464.9" cy="800.1" r="15"/>
<g>
	<text transform="matrix(1 0 0 1 455.0253 820.6437)"><tspan x="0" y="0" class="st4 st5 st9">Finland </tspan><tspan x="-3.5" y="7.2" class="st4 st5 st9">bucket list</tspan></text>
</g>
<circle class="st10" cx="398.2" cy="800.1" r="14.6"/>
<g>
	<text transform="matrix(1 0 0 1 386.0295 820.5344)" class="st5 st9">Denmark</text>
</g>
<circle class="st10" cx="331.6" cy="800.1" r="14.5"/>
<g>
	<text transform="matrix(1 0 0 1 321.9088 820.1935)" class="st5 st9">Iceland</text>
</g>
<circle class="st10" cx="264.9" cy="801.1" r="14.4"/>
<g>
	<text transform="matrix(1 0 0 1 257.5466 820.0838)" class="st5 st9">Israel</text>
</g>
<circle class="st10" cx="198.2" cy="800.1" r="14.2"/>
<g>
	<g>
		<linearGradient id="SVGID_1_" gradientUnits="userSpaceOnUse" x1="200.8543" y1="818.6226" x2="201.3543" y2="818.6226">
			<stop  offset="0" style="stop-color:#FFFFFF"/>
			<stop  offset="1" style="stop-color:#000000"/>
		</linearGradient>
		<path class="st11" d="M185.9,820.5h-0.6l-2.2-3.4v3.4h-0.5v-4.3h0.6l2.2,3.4v-3.4h0.5V820.5z"/>
		<linearGradient id="SVGID_2_" gradientUnits="userSpaceOnUse" x1="200.8543" y1="818.6226" x2="201.3543" y2="818.6226">
			<stop  offset="0" style="stop-color:#FFFFFF"/>
			<stop  offset="1" style="stop-color:#000000"/>
		</linearGradient>
		<path class="st12" d="M188.1,820.6c-0.5,0-0.8-0.1-1.1-0.4s-0.4-0.7-0.4-1.2c0-0.5,0.1-0.9,0.4-1.2s0.6-0.4,1.1-0.4
			c0.4,0,0.8,0.1,1.1,0.4s0.4,0.7,0.4,1.2v0.1h-2.3c0,0.4,0.1,0.6,0.3,0.8s0.4,0.3,0.6,0.3c0.2,0,0.4,0,0.5-0.1s0.2-0.2,0.2-0.4h0.6
			c0,0.3-0.2,0.6-0.4,0.7S188.4,820.6,188.1,820.6z M188.9,818.7c0-0.3-0.1-0.5-0.3-0.7s-0.3-0.2-0.6-0.2c-0.2,0-0.4,0.1-0.6,0.2
			c-0.2,0.1-0.3,0.4-0.3,0.7H188.9z"/>
		<linearGradient id="SVGID_3_" gradientUnits="userSpaceOnUse" x1="200.8543" y1="818.6226" x2="201.3543" y2="818.6226">
			<stop  offset="0" style="stop-color:#FFFFFF"/>
			<stop  offset="1" style="stop-color:#000000"/>
		</linearGradient>
		<path class="st13" d="M191.3,820.6c-0.1,0-0.3,0-0.4,0c-0.2,0-0.4,0-0.5-0.1c-0.1-0.1-0.2-0.2-0.2-0.3s0-0.3,0-0.5v-1.8h-0.4v-0.4
			h0.4v-0.8h0.6v0.8h0.5v0.4h-0.5v1.8c0,0.2,0,0.3,0.1,0.4c0.1,0.1,0.1,0.1,0.2,0.1c0.1,0,0.2,0,0.3,0V820.6z"/>
		<linearGradient id="SVGID_4_" gradientUnits="userSpaceOnUse" x1="200.8543" y1="818.6226" x2="201.3543" y2="818.6226">
			<stop  offset="0" style="stop-color:#FFFFFF"/>
			<stop  offset="1" style="stop-color:#000000"/>
		</linearGradient>
		<path class="st14" d="M192.3,817.8c0.3-0.3,0.6-0.5,0.9-0.5c0.7,0,1.1,0.4,1.1,1.1v2h-0.6v-2c0-0.3,0-0.4-0.1-0.5
			s-0.2-0.2-0.4-0.2c-0.3,0-0.6,0.2-0.8,0.5v2.2h-0.6v-4.3h0.6V817.8z"/>
		<linearGradient id="SVGID_5_" gradientUnits="userSpaceOnUse" x1="200.8543" y1="818.6226" x2="201.3543" y2="818.6226">
			<stop  offset="0" style="stop-color:#FFFFFF"/>
			<stop  offset="1" style="stop-color:#000000"/>
		</linearGradient>
		<path class="st15" d="M196.4,820.6c-0.5,0-0.8-0.1-1.1-0.4s-0.4-0.7-0.4-1.2c0-0.5,0.1-0.9,0.4-1.2s0.6-0.4,1.1-0.4
			c0.4,0,0.8,0.1,1.1,0.4s0.4,0.7,0.4,1.2v0.1h-2.3c0,0.4,0.1,0.6,0.3,0.8s0.4,0.3,0.6,0.3c0.2,0,0.4,0,0.5-0.1s0.2-0.2,0.2-0.4h0.6
			c0,0.3-0.2,0.6-0.4,0.7S196.8,820.6,196.4,820.6z M197.2,818.7c0-0.3-0.1-0.5-0.3-0.7s-0.3-0.2-0.6-0.2c-0.2,0-0.4,0.1-0.6,0.2
			c-0.2,0.1-0.3,0.4-0.3,0.7H197.2z"/>
		<linearGradient id="SVGID_6_" gradientUnits="userSpaceOnUse" x1="200.8543" y1="818.6226" x2="201.3543" y2="818.6226">
			<stop  offset="0" style="stop-color:#FFFFFF"/>
			<stop  offset="1" style="stop-color:#000000"/>
		</linearGradient>
		<path class="st16" d="M200,817.9c-0.1,0-0.2,0-0.3,0c-0.3,0-0.5,0.1-0.7,0.4v2.2h-0.6v-3.1h0.6v0.4c0.2-0.3,0.5-0.5,0.8-0.5
			c0.1,0,0.2,0,0.3,0V817.9z"/>
		<linearGradient id="SVGID_7_" gradientUnits="userSpaceOnUse" x1="200.8543" y1="818.6226" x2="201.3543" y2="818.6226">
			<stop  offset="0" style="stop-color:#FFFFFF"/>
			<stop  offset="1" style="stop-color:#000000"/>
		</linearGradient>
		<path class="st17" d="M201,820.5h-0.6v-4.3h0.6V820.5z"/>
		<linearGradient id="SVGID_8_" gradientUnits="userSpaceOnUse" x1="200.8543" y1="818.6226" x2="201.3543" y2="818.6226">
			<stop  offset="0" style="stop-color:#FFFFFF"/>
			<stop  offset="1" style="stop-color:#000000"/>
		</linearGradient>
		<path class="st18" d="M203.8,820.2c-0.3,0.3-0.6,0.4-1.1,0.4c-0.3,0-0.6-0.1-0.8-0.3c-0.2-0.2-0.3-0.4-0.3-0.6
			c0-0.7,0.6-1.1,1.9-1.1h0.3c0-0.2,0-0.4,0-0.5c0-0.1-0.1-0.2-0.2-0.2s-0.3-0.1-0.5-0.1c-0.5,0-0.7,0.2-0.8,0.5h-0.6
			c0-0.6,0.5-1,1.3-1c0.4,0,0.7,0.1,0.9,0.2s0.3,0.5,0.3,0.9v2h-0.6V820.2z M203.8,819.7V819h-0.4c-0.8,0-1.2,0.2-1.2,0.7
			c0,0.2,0.1,0.3,0.2,0.4c0.1,0.1,0.3,0.1,0.5,0.1c0.2,0,0.4,0,0.5-0.1S203.7,819.9,203.8,819.7z"/>
		<linearGradient id="SVGID_9_" gradientUnits="userSpaceOnUse" x1="200.8543" y1="818.6226" x2="201.3543" y2="818.6226">
			<stop  offset="0" style="stop-color:#FFFFFF"/>
			<stop  offset="1" style="stop-color:#000000"/>
		</linearGradient>
		<path class="st19" d="M205.7,817.8c0.3-0.3,0.6-0.5,0.9-0.5c0.7,0,1.1,0.4,1.1,1.1v2h-0.6v-2c0-0.3,0-0.4-0.1-0.5
			s-0.2-0.2-0.4-0.2c-0.3,0-0.6,0.2-0.8,0.5v2.2h-0.6v-3.1h0.6V817.8z"/>
		<linearGradient id="SVGID_10_" gradientUnits="userSpaceOnUse" x1="200.8543" y1="818.6226" x2="201.3543" y2="818.6226">
			<stop  offset="0" style="stop-color:#FFFFFF"/>
			<stop  offset="1" style="stop-color:#000000"/>
		</linearGradient>
		<path class="st20" d="M210.4,820.2c-0.2,0.3-0.5,0.4-0.9,0.4c-0.4,0-0.7-0.1-0.9-0.4s-0.3-0.7-0.3-1.2c0-0.5,0.1-0.9,0.4-1.2
			c0.2-0.3,0.6-0.4,0.9-0.4c0.3,0,0.6,0.1,0.9,0.3v-1.4h0.6v4.3h-0.6V820.2z M210.4,819.7v-1.5c-0.2-0.3-0.5-0.4-0.8-0.4
			c-0.2,0-0.4,0.1-0.6,0.3s-0.2,0.5-0.2,0.9c0,0.4,0.1,0.7,0.2,0.9c0.1,0.2,0.3,0.3,0.6,0.3C209.9,820.2,210.2,820,210.4,819.7z"/>
		<linearGradient id="SVGID_11_" gradientUnits="userSpaceOnUse" x1="200.8543" y1="818.6226" x2="201.3543" y2="818.6226">
			<stop  offset="0" style="stop-color:#FFFFFF"/>
			<stop  offset="1" style="stop-color:#000000"/>
		</linearGradient>
		<path class="st21" d="M212.9,820.6c-0.8,0-1.3-0.3-1.3-1h0.6c0,0.4,0.3,0.6,0.8,0.6c0.2,0,0.4,0,0.5-0.1s0.2-0.2,0.2-0.4
			c0-0.1-0.1-0.2-0.2-0.3c-0.1-0.1-0.4-0.1-0.7-0.2s-0.6-0.2-0.8-0.3s-0.3-0.3-0.3-0.6c0-0.3,0.1-0.5,0.3-0.6
			c0.2-0.2,0.5-0.3,0.8-0.3c0.8,0,1.2,0.3,1.2,0.9h-0.6c0-0.3-0.2-0.4-0.7-0.4c-0.2,0-0.3,0-0.5,0.1s-0.2,0.2-0.2,0.3
			c0,0.1,0,0.2,0.1,0.3s0.3,0.1,0.7,0.2c0.4,0.1,0.7,0.2,0.8,0.3s0.3,0.3,0.3,0.6c0,0.3-0.1,0.5-0.3,0.7
			C213.6,820.5,213.3,820.6,212.9,820.6z"/>
	</g>
	<text transform="matrix(1 0 0 1 182.0063 820.5486)" class="st5 st9">Netherlands</text>
</g>
<circle class="st10" cx="231.6" cy="769.4" r="14.2"/>
<g>
	<text transform="matrix(1 0 0 1 220.7588 788.7147)" class="st5 st9">Sweden</text>
</g>
<circle class="st4" cx="298.2" cy="770.4" r="14.1"/>
<g>
	<text transform="matrix(1 0 0 1 288.0309 788.4209)"><tspan x="0" y="0" class="st4 st5 st9">Norway </tspan><tspan x="-3.2" y="7.2" class="st4 st5 st9">bucket list </tspan><tspan x="-1.8" y="14.4" class="st4 st5 st9">northern  </tspan><tspan x="3.1" y="21.6" class="st4 st5 st9">lights</tspan></text>
</g>
<ellipse class="st22" cx="364.9" cy="769.4" rx="13.9" ry="13.9"/>
<g>
	<text transform="matrix(1 0 0 1 349.3582 788.7119)" class="st5 st9">Switzerland</text>
</g>
<circle class="st10" cx="431.6" cy="769.4" r="13.9"/>
<g>
	<text transform="matrix(1 0 0 1 414.9227 788.8227)" class="st5 st9">Luxembourg</text>
</g>
<circle class="st10" cx="498.2" cy="769.4" r="13.7"/>
<g>
	<text transform="matrix(1 0 0 1 480.5422 788.8228)" class="st5 st9">New Zealand</text>
</g>
<circle class="st10" cx="531.6" cy="738.6" r="13.6"/>
<g>
	<text transform="matrix(1 0 0 1 522.2484 757.533)" class="st5 st9">Austria</text>
</g>
<circle class="st10" cx="464.9" cy="738.6" r="13.6"/>
<g>
	<text transform="matrix(1 0 0 1 453.1959 757.1058)" class="st5 st9">Australia</text>
</g>
<circle class="st10" cx="398.2" cy="738.6" r="13.4"/>
<g>
	<text transform="matrix(1 0 0 1 387.6917 757.5626)" class="st5 st9">Canada</text>
</g>
<circle class="st10" cx="331.6" cy="738.6" r="13.3"/>
<g>
	<text transform="matrix(1 0 0 1 322.4097 757.4233)" class="st5 st9">Ireland</text>
</g>
<circle class="st4" cx="264.9" cy="739.6" r="13.3"/>
<g>
	<text transform="matrix(1 0 0 1 260.7325 757.4441)"><tspan x="0" y="0" class="st4 st5 st9">US </tspan><tspan x="-16.6" y="7.2" class="st4 st5 st9">current country  </tspan><tspan x="-12.2" y="14.4" class="st4 st5 st9">of residence</tspan></text>
</g>
<circle class="st4" cx="198.2" cy="739.6" r="13.2"/>
<g>
	<text transform="matrix(1 0 0 1 184.8629 757.3378)"><tspan x="0" y="0" class="st4 st5 st9">Germany </tspan><tspan x="-8.3" y="7.2" class="st4 st5 st9">great museums</tspan></text>
</g>
<circle class="st10" cx="231.6" cy="708.8" r="13.2"/>
<g>
	<text transform="matrix(1 0 0 1 220.7263 726.7059)" class="st5 st9">Belgium</text>
</g>
<circle class="st10" cx="298.2" cy="707.8" r="13.2"/>
<g>
	<text transform="matrix(1 0 0 1 287.3438 726.9138)" class="st5 st9">Czechia</text>
</g>
<circle class="st4" cx="364.9" cy="707.8" r="13.1"/>
<g>
	<text transform="matrix(1 0 0 1 360.7322 726.626)"><tspan x="0" y="0" class="st4 st5 st9">UK </tspan><tspan x="-14.1" y="7.2" class="st4 st5 st9">sister-in-law’s </tspan><tspan x="-12.3" y="14.4" class="st4 st5 st9">birth country</tspan></text>
</g>
<circle class="st10" cx="431.6" cy="707.8" r="13"/>
<g>
	<text transform="matrix(1 0 0 1 419.3876 725.9155)" class="st5 st9">Lithuania</text>
</g>
<circle class="st10" cx="498.2" cy="707.8" r="12.8"/>
<g>
	<text transform="matrix(1 0 0 1 488.8635 725.8043)" class="st5 st9">France</text>
</g>
<circle class="st10" cx="531.6" cy="677.1" r="12.8"/>
<g>
	<text transform="matrix(1 0 0 1 520.0568 695.5704)" class="st5 st9">Slovenia</text>
</g>
<circle class="st10" cx="464.9" cy="677.1" r="12.7"/>
<g>
	<text transform="matrix(1 0 0 1 450.2472 695.5454)" class="st5 st9">Costa Rica</text>
</g>
<circle class="st10" cx="398.2" cy="677.1" r="12.7"/>
<g>
	<text transform="matrix(1 0 0 1 386.1768 695.5707)" class="st5 st9">Romania</text>
</g>
<circle class="st4" cx="331.6" cy="677.1" r="12.7"/>
<g>
	<text transform="matrix(1 0 0 1 317.9052 695.3917)"><tspan x="0" y="0" class="st4 st5 st9">Singapore </tspan><tspan x="-4.8" y="7.2" class="st4 st5 st9">best weekend </tspan><tspan x="2.5" y="14.4" class="st4 st5 st9">getaway </tspan><tspan x="0.4" y="21.6" class="st4 st5 st9">from India</tspan></text>
</g>
<circle class="st10" cx="264.9" cy="677.1" r="12.6"/>
<g>
	<text transform="matrix(1 0 0 1 258.7317 695.4653)"><tspan x="0" y="0" class="st5 st9">UAE </tspan><tspan x="-12.3" y="7.2" class="st5 st9">most layovers</tspan></text>
</g>
<circle class="st10" cx="198.2" cy="677.1" r="12.6"/>
<g>
	<text transform="matrix(1 0 0 1 188.5115 695.6545)" class="st5 st9">Taiwan</text>
</g>
<circle class="st10" cx="231.6" cy="646.3" r="12.5"/>
<g>
	<text transform="matrix(1 0 0 1 220.2609 664.3998)" class="st5 st9">Uruguay</text>
</g>
<circle class="st10" cx="298.2" cy="646.3" r="12.4"/>
<g>
	<text transform="matrix(1 0 0 1 286.8256 664.2217)" class="st5 st9">Slovakia</text>
</g>
<circle class="st10" cx="364.9" cy="646.3" r="12.4"/>
<g>
	<text transform="matrix(1 0 0 1 347.7236 664.1119)" class="st5 st9">Saudi Arabia</text>
</g>
<circle class="st10" cx="431.6" cy="646.3" r="12.4"/>
<g>
	<text transform="matrix(1 0 0 1 421.576 664.0002)" class="st5 st9">Estonia</text>
</g>
<ellipse class="st4" cx="498.2" cy="646.3" rx="12.4" ry="12.4"/>
<g>
	<text transform="matrix(1 0 0 1 490.5095 664.2997)"><tspan x="0" y="0" class="st4 st5 st9">Spain </tspan><tspan x="-4.8" y="7.2" class="st4 st5 st9">brother’s  </tspan><tspan x="-2.4" y="14.4" class="st4 st5 st9">current  </tspan><tspan x="-6.2" y="21.6" class="st4 st5 st9">country of  </tspan><tspan x="-5.3" y="28.8" class="st4 st5 st9">residence</tspan></text>
</g>
<circle class="st10" cx="531.6" cy="615.5" r="12.3"/>
<g>
	<text transform="matrix(1 0 0 1 526.0801 633.8804)" class="st5 st9">Italy</text>
</g>
<ellipse class="st23" cx="464.9" cy="615.5" rx="12.2" ry="12.2"/>
<g>
	<text transform="matrix(1 0 0 1 454.8936 633.7706)" class="st5 st9">Kosovo</text>
</g>
<circle class="st10" cx="398.2" cy="615.5" r="12.2"/>
<g>
	<text transform="matrix(1 0 0 1 391.3289 633.6611)" class="st5 st9">Chile</text>
</g>
<circle class="st10" cx="331.6" cy="615.5" r="12.2"/>
<g>
	<text transform="matrix(1 0 0 1 322.0798 632.6608)" class="st5 st9">Mexico</text>
</g>
<circle class="st10" cx="264.9" cy="615.5" r="12.1"/>
<g>
	<text transform="matrix(1 0 0 1 257.5464 632.6609)" class="st5 st9">Malta</text>
</g>
<circle class="st10" cx="198.2" cy="615.5" r="12"/>
<g>
	<text transform="matrix(1 0 0 1 187.026 632.6611)" class="st5 st9">Panama</text>
</g>
<circle class="st10" cx="231.6" cy="584.7" r="12"/>
<g>
	<text transform="matrix(1 0 0 1 222.2411 602.1788)" class="st5 st9">Poland</text>
</g>
<circle class="st10" cx="298.2" cy="584.7" r="12"/>
<g>
	<text transform="matrix(1 0 0 1 284.5079 602.289)" class="st5 st9">Nicaragua</text>
</g>
<ellipse class="st23" cx="364.9" cy="584.7" rx="11.9" ry="11.9"/>
<g>
	<text transform="matrix(1 0 0 1 356.8768 601.8997)" class="st5 st9">Latvia</text>
</g>
<circle class="st10" cx="431.6" cy="584.7" r="11.9"/>
<g>
	<text transform="matrix(1 0 0 1 421.2423 601.9001)" class="st5 st9">Bahrain</text>
</g>
<ellipse class="st23" cx="498.2" cy="584.7" rx="11.8" ry="11.8"/>
<g>
	<text transform="matrix(1 0 0 1 483.5073 601.951)" class="st5 st9">Guatemala</text>
</g>
<circle class="st10" cx="531.6" cy="554" r="11.8"/>
<g>
	<text transform="matrix(1 0 0 1 515.9231 571.433)" class="st5 st9">Kazakhstan</text>
</g>
<ellipse class="st24" cx="464.9" cy="554" rx="11.8" ry="11.8"/>
<g>
	<text transform="matrix(1 0 0 1 456.2103 571.2003)" class="st5 st9">Serbia</text>
</g>
<circle class="st10" cx="398.2" cy="554" r="11.8"/>
<g>
	<text transform="matrix(1 0 0 1 388.6975 570.8133)" class="st5 st9">Cyprus</text>
</g>
<circle class="st10" cx="331.6" cy="554" r="11.8"/>
<g>
	<text transform="matrix(1 0 0 1 323.4266 571.0202)" class="st5 st9">Japan</text>
</g>
<circle class="st10" cx="264.9" cy="554" r="11.8"/>
<g>
	<text transform="matrix(1 0 0 1 255.2115 570.9108)" class="st5 st9">Croatia</text>
</g>
<circle class="st10" cx="198.2" cy="554" r="11.8"/>
<g>
	<text transform="matrix(1 0 0 1 190.6636 571.6703)" class="st5 st9">Brazil</text>
</g>
<circle class="st10" cx="231.6" cy="523.2" r="11.8"/>
<g>
	<text transform="matrix(1 0 0 1 216.2485 540.8901)" class="st5 st9">El Salvador</text>
</g>
<ellipse class="st22" cx="298.2" cy="523.2" rx="11.6" ry="11.6"/>
<g>
	<text transform="matrix(1 0 0 1 286.8607 539.7798)" class="st5 st9">Hungary</text>
</g>
<ellipse class="st23" cx="364.9" cy="523.2" rx="11.6" ry="11.6"/>
<g>
	<text transform="matrix(1 0 0 1 352.0431 539.7804)" class="st5 st9">Argentina</text>
</g>
<circle class="st10" cx="431.6" cy="523.2" r="11.6"/>
<g>
	<text transform="matrix(1 0 0 1 418.5923 540.7803)" class="st5 st9">Honduras</text>
</g>
<ellipse class="st23" cx="498.2" cy="523.2" rx="11.6" ry="11.6"/>
<g>
	<text transform="matrix(1 0 0 1 483.342 540.5476)" class="st5 st9">Uzbekistan</text>
</g>
<circle class="st10" cx="531.6" cy="492.4" r="11.6"/>
<g>
	<text transform="matrix(1 0 0 1 519.7277 509.6514)" class="st5 st9">Malaysia</text>
</g>
<circle class="st10" cx="464.9" cy="492.4" r="11.5"/>
<g>
	<text transform="matrix(1 0 0 1 453.7083 509.5417)" class="st5 st9">Portugal</text>
</g>
<circle class="st10" cx="398.2" cy="492.4" r="11.4"/>
<g>
	<text transform="matrix(1 0 0 1 381.5581 509.1989)" class="st5 st9">South Korea</text>
</g>
<circle class="st10" cx="331.6" cy="492.4" r="11.4"/>
<g>
	<text transform="matrix(1 0 0 1 321.7625 509.199)" class="st5 st9">Greece</text>
</g>
<circle class="st10" cx="264.9" cy="492.4" r="11.3"/>
<g>
	<text transform="matrix(1 0 0 1 252.6951 508.4321)" class="st5 st9">Mauritius</text>
</g>
<circle class="st10" cx="198.2" cy="492.4" r="11.2"/>
<g>
	<text transform="matrix(1 0 0 1 186.6569 509.1996)" class="st5 st9">Thailand</text>
</g>
<circle class="st10" cx="231.6" cy="461.7" r="11.2"/>
<g>
	<text transform="matrix(1 0 0 1 219.3907 478.3284)" class="st5 st9">Mongolia</text>
</g>
<circle class="st10" cx="298.2" cy="461.7" r="11.2"/>
<g>
	<text transform="matrix(1 0 0 1 283.3611 478.4384)" class="st5 st9">Kyrgyzstan</text>
</g>
<circle class="st10" cx="364.9" cy="461.7" r="11.2"/>
<g>
	<text transform="matrix(1 0 0 1 353.5427 478.1005)" class="st5 st9">Moldova</text>
</g>
<circle class="st10" cx="431.6" cy="461.7" r="11.2"/>
<g>
	<text transform="matrix(1 0 0 1 423.7441 478.1004)" class="st5 st9">China</text>
</g>
<circle class="st10" cx="498.2" cy="461.7" r="11.1"/>
<g>
	<text transform="matrix(1 0 0 1 487.1772 477.1003)" class="st5 st9">Vietnam</text>
</g>
<circle class="st10" cx="531.6" cy="427.5" r="11"/>
<g>
	<text transform="matrix(1 0 0 1 518.7574 444.0088)" class="st5 st9">Paraguay</text>
</g>
<circle class="st10" cx="464.9" cy="427.5" r="11"/>
<g>
	<text transform="matrix(1 0 0 1 448.8893 444.0092)" class="st5 st9">Montenegro</text>
</g>
<circle class="st10" cx="398.2" cy="427.5" r="11"/>
<g>
	<text transform="matrix(1 0 0 1 387.0115 444.2546)" class="st5 st9">Jamaica</text>
</g>
<circle class="st10" cx="331.6" cy="427.5" r="10.9"/>
<g>
	<text transform="matrix(1 0 0 1 322.71 443.7899)" class="st5 st9">Bolivia</text>
</g>
<circle class="st10" cx="264.9" cy="427.5" r="10.9"/>
<g>
	<text transform="matrix(1 0 0 1 255.7124 443.2551)" class="st5 st9">Russia</text>
</g>
<circle class="st10" cx="198.2" cy="427.5" r="10.8"/>
<g>
	<text transform="matrix(1 0 0 1 182.7606 443.7141)"><tspan x="0" y="0" class="st5 st9">Bosnia and  </tspan><tspan x="-1.1" y="7.2" class="st5 st9">Herzegovina</tspan></text>
</g>
<circle class="st10" cx="231.6" cy="400.1" r="10.8"/>
<g>
	<text transform="matrix(1 0 0 1 218.8927 416.5155)" class="st5 st9">Colombia</text>
</g>
<circle class="st10" cx="298.2" cy="400.1" r="10.7"/>
<g>
	<text transform="matrix(1 0 0 1 271.4871 415.4061)" class="st5 st9">Dominican Republic</text>
</g>
<circle class="st10" cx="364.9" cy="400.1" r="10.7"/>
<g>
	<text transform="matrix(1 0 0 1 353.7146 416.2964)" class="st5 st9">Ecuador</text>
</g>
<circle class="st10" cx="431.6" cy="400.1" r="10.6"/>
<g>
	<text transform="matrix(1 0 0 1 425.2635 416.2963)" class="st5 st9">Peru</text>
</g>
<circle class="st4" cx="498.2" cy="400.1" r="10.6"/>
<g>
	<text transform="matrix(1 0 0 1 483.6201 416.2542)"><tspan x="0" y="0" class="st4 st5 st9">Philippines </tspan><tspan x="-7" y="7.2" class="st4 st5 st9">brother’s higher  </tspan><tspan x="1.6" y="14.4" class="st4 st5 st9">education</tspan></text>
</g>
<circle class="st10" cx="531.6" cy="369.4" r="10.5"/>
<g>
	<text transform="matrix(1 0 0 1 520.5582 385.3412)" class="st5 st9">Bulgaria</text>
</g>
<circle class="st4" cx="464.9" cy="369.4" r="10.3"/>
<g>
	<text transform="matrix(1 0 0 1 457.0444 384.937)"><tspan x="0" y="0" class="st4 st5 st9">Nepal </tspan><tspan x="-5.5" y="7.2" class="st4 st5 st9">bucket list </tspan><tspan x="-6.9" y="14.4" class="st4 st5 st9">mt. everest</tspan></text>
</g>
<circle class="st10" cx="398.2" cy="369.4" r="10.3"/>
<g>
	<text transform="matrix(1 0 0 1 387.0149 385.3807)" class="st5 st9">Armenia</text>
</g>
<circle class="st10" cx="331.6" cy="369.4" r="10.2"/>
<g>
	<text transform="matrix(1 0 0 1 318.8767 384.4999)" class="st5 st9">Tajikistan</text>
</g>
<circle class="st10" cx="264.9" cy="369.4" r="10.2"/>
<g>
	<text transform="matrix(1 0 0 1 255.5295 385.2319)" class="st5 st9">Algeria</text>
</g>
<circle class="st10" cx="198.2" cy="369.4" r="10.2"/>
<g>
	<text transform="matrix(1 0 0 1 183.2251 385.2998)" class="st5 st9">Hong Kong</text>
</g>
<circle class="st10" cx="231.6" cy="338.5" r="10.1"/>
<g>
	<text transform="matrix(1 0 0 1 221.5599 352.9852)" class="st5 st9">Albania</text>
</g>
<circle class="st10" cx="298.2" cy="338.5" r="10.1"/>
<g>
	<text transform="matrix(1 0 0 1 285.1718 353.5952)" class="st5 st9">Indonesia</text>
</g>
<ellipse transform="matrix(7.088793e-02 -0.9975 0.9975 7.088793e-02 1.3347 678.5329)" class="st23" cx="364.9" cy="338.5" rx="10.1" ry="10.1"/>
<g>
	<text transform="matrix(1 0 0 1 348.5771 353.6336)" class="st5 st9">South Africa</text>
</g>
<circle class="st10" cx="431.6" cy="338.5" r="10.1"/>
<g>
	<text transform="matrix(1 0 0 1 405.4071 353.7437)" class="st5 st9">Congo (Brazzaville)</text>
</g>
<circle class="st10" cx="498.2" cy="338.5" r="10.1"/>
<g>
	<text transform="matrix(1 0 0 1 475.3735 353.9129)" class="st5 st9">North Macedonia</text>
</g>
<circle class="st10" cx="531.6" cy="307.7" r="10"/>
<g>
	<text transform="matrix(1 0 0 1 517.4041 322.5399)" class="st5 st9">Venezuela</text>
</g>
<circle class="st10" cx="464.9" cy="307.7" r="9.8"/>
<g>
	<text transform="matrix(1 0 0 1 458.3947 322.67)" class="st5 st9">Laos</text>
</g>
<circle class="st10" cx="398.2" cy="307.7" r="9.8"/>
<g>
	<text transform="matrix(1 0 0 1 387.5095 322.54)" class="st5 st9">Georgia</text>
</g>
<circle class="st10" cx="331.6" cy="307.7" r="9.7"/>
<g>
	<text transform="matrix(1 0 0 1 321.9088 322.6574)" class="st5 st9">Guinea</text>
</g>
<circle class="st10" cx="264.9" cy="307.7" r="9.7"/>
<g>
	<text transform="matrix(1 0 0 1 254.5449 322.6698)" class="st5 st9">Ukraine</text>
</g>
<circle class="st10" cx="198.2" cy="307.7" r="9.7"/>
<g>
	<text transform="matrix(1 0 0 1 183.0651 322.7802)" class="st5 st9">Ivory Coast</text>
</g>
<circle class="st10" cx="231.6" cy="276.9" r="9.7"/>
<g>
	<text transform="matrix(1 0 0 1 222.5927 292.1702)" class="st5 st9">Gabon</text>
</g>
<circle class="st10" cx="298.2" cy="276.9" r="9.6"/>
<g>
	<text transform="matrix(1 0 0 1 288.6608 290.944)" class="st5 st9">Nigeria</text>
</g>
<circle class="st10" cx="364.9" cy="276.9" r="9.6"/>
<g>
	<text transform="matrix(1 0 0 1 350.8931 291.7369)" class="st5 st9">Cameroon</text>
</g>
<circle class="st10" cx="431.6" cy="276.9" r="9.5"/>
<g>
	<text transform="matrix(1 0 0 1 414.4072 291.944)" class="st5 st9">Mozambique</text>
</g>
<circle class="st10" cx="498.2" cy="276.9" r="9.5"/>
<g>
	<text transform="matrix(1 0 0 1 493.0308 291.9376)" class="st5 st9">Iraq</text>
</g>
<circle class="st10" cx="531.6" cy="246.3" r="9.4"/>
<g>
	<text transform="matrix(1 0 0 1 508.1228 261.0646)" class="st5 st9">State of Palestine</text>
</g>
<circle class="st10" cx="464.9" cy="246.3" r="9.4"/>
<g>
	<text transform="matrix(1 0 0 1 453.3964 260.2971)" class="st5 st9">Morocco</text>
</g>
<circle class="st10" cx="398.2" cy="246.3" r="9.4"/>
<g>
	<text transform="matrix(1 0 0 1 393.031 260.7277)" class="st5 st9">Iran</text>
</g>
<circle class="st10" cx="331.6" cy="246.3" r="9.3"/>
<g>
	<text transform="matrix(1 0 0 1 320.5725 260.6183)" class="st5 st9">Senegal</text>
</g>
<circle class="st10" cx="264.9" cy="246.3" r="9.1"/>
<g>
	<text transform="matrix(1 0 0 1 250.858 261.6183)" class="st5 st9">Mauritania</text>
</g>
<circle class="st10" cx="198.2" cy="246.3" r="8.9"/>
<g>
	<text transform="matrix(1 0 0 1 180.5441 259.9)" class="st5 st9">Burkina Faso</text>
</g>
<circle class="st10" cx="231.6" cy="215.5" r="8.9"/>
<g>
	<text transform="matrix(1 0 0 1 220.5608 229.3424)" class="st5 st9">Namibia</text>
</g>
<circle class="st10" cx="298.2" cy="215.5" r="8.9"/>
<g>
	<text transform="matrix(1 0 0 1 288.3472 230.342)"><tspan x="0" y="0" class="st5 st9">Turkiye </tspan><tspan x="-9.3" y="7.2" class="st5 st9">best bucklava  </tspan><tspan x="4" y="14.4" class="st5 st9">ever</tspan></text>
</g>
<circle class="st10" cx="364.9" cy="215.5" r="8.9"/>
<g>
	<text transform="matrix(1 0 0 1 355.8926 229.441)" class="st5 st9">Ghana</text>
</g>
<circle class="st10" cx="431.6" cy="215.5" r="8.8"/>
<g>
	<text transform="matrix(1 0 0 1 420.0763 229.2324)" class="st5 st9">Pakistan</text>
</g>
<circle class="st10" cx="498.2" cy="215.5" r="8.7"/>
<g>
	<text transform="matrix(1 0 0 1 491.0017 229.3732)" class="st5 st9">Niger</text>
</g>
<circle class="st10" cx="531.6" cy="184.7" r="8.6"/>
<g>
	<text transform="matrix(1 0 0 1 521.8942 198.5002)" class="st5 st9">Tunisia</text>
</g>
<circle class="st10" cx="464.9" cy="184.7" r="8.6"/>
<g>
	<text transform="matrix(1 0 0 1 456.3934 198.5001)" class="st5 st9">Kenya</text>
</g>
<circle class="st4" cx="398.2" cy="184.7" r="8.5"/>
<g>
	<text transform="matrix(1 0 0 1 385.5449 199.7697)"><tspan x="0" y="0" class="st5 st9">Sri Lanka </tspan><tspan x="-0.7" y="7.2" class="st5 st9">bucket list </tspan><tspan x="2.8" y="14.4" class="st5 st9">tourism</tspan></text>
</g>
<circle class="st10" cx="331.6" cy="184.7" r="8.5"/>
<g>
	<text transform="matrix(1 0 0 1 321.0916 199.0557)" class="st5 st9">Uganda</text>
</g>
<circle class="st10" cx="264.9" cy="184.7" r="8.5"/>
<g>
	<text transform="matrix(1 0 0 1 257.728 198.5002)" class="st5 st9">Chad</text>
</g>
<circle class="st10" cx="198.2" cy="184.7" r="8.4"/>
<g>
	<text transform="matrix(1 0 0 1 184.508 198.9484)" class="st5 st9">Cambodia</text>
</g>
<circle class="st10" cx="231.6" cy="153.9" r="8.4"/>
<g>
	<text transform="matrix(1 0 0 1 223.9095 166.5761)" class="st5 st9">Benin</text>
</g>
<circle class="st10" cx="298.2" cy="153.9" r="8.4"/>
<g>
	<text transform="matrix(1 0 0 1 285.6861 167.6864)" class="st5 st9">Myanmar</text>
</g>
<circle class="st10" cx="364.9" cy="153.9" r="8.2"/>
<g>
	<text transform="matrix(1 0 0 1 349.0356 167.4001)" class="st5 st9">Bangladesh</text>
</g>
<circle class="st10" cx="431.6" cy="153.9" r="8.2"/>
<g>
	<text transform="matrix(1 0 0 1 421.078 167.4379)" class="st5 st9">Gambia</text>
</g>
<circle class="st10" cx="498.2" cy="153.9" r="8.1"/>
<g>
	<text transform="matrix(1 0 0 1 492.6646 166.5462)" class="st5 st9">Mali</text>
</g>
<circle class="st10" cx="531.6" cy="123.3" r="8"/>
<g>
	<text transform="matrix(1 0 0 1 523.9286 136.1125)" class="st5 st9">Egypt</text>
</g>
<circle class="st10" cx="464.9" cy="123.3" r="8"/>
<g>
	<text transform="matrix(1 0 0 1 458.0618 136.4019)" class="st5 st9">Togo</text>
</g>
<circle class="st10" cx="398.2" cy="123.3" r="7.9"/>
<g>
	<text transform="matrix(1 0 0 1 389.0271 135.7504)" class="st5 st9">Jordan</text>
</g>
<circle class="st10" cx="331.6" cy="123.3" r="7.9"/>
<g>
	<text transform="matrix(1 0 0 1 320.7231 136.303)" class="st5 st9">Ethiopia</text>
</g>
<circle class="st10" cx="264.9" cy="123.3" r="7.8"/>
<g>
	<text transform="matrix(1 0 0 1 255.859 136.6516)" class="st5 st9">Liberia</text>
</g>
<circle class="st4" cx="198.2" cy="123.3" r="7.8"/>
<g>
	<text transform="matrix(1 0 0 1 191.6773 136.835)"><tspan x="0" y="0" class="st4 st5 st9">India </tspan><tspan x="-10" y="7.2" class="st4 st5 st9">birth country</tspan></text>
</g>
<circle class="st10" cx="498.2" cy="92.4" r="7.7"/>
<g>
	<text transform="matrix(1 0 0 1 481.6797 104.9271)" class="st5 st9">Madagascar</text>
</g>
<circle class="st10" cx="431.6" cy="92.4" r="7.7"/>
<g>
	<text transform="matrix(1 0 0 1 421.5793 112.9272)" class="st5 st9">Zambia</text>
</g>
<circle class="st10" cx="364.9" cy="92.4" r="7.1"/>
<g>
	<text transform="matrix(1 0 0 1 352.5415 105.3133)" class="st5 st9">Tanzania</text>
</g>
<circle class="st10" cx="298.2" cy="92.4" r="6.8"/>
<g>
	<text transform="matrix(1 0 0 1 286.0301 104.2565)" class="st5 st9">Comoros</text>
</g>
<circle class="st10" cx="231.6" cy="92.4" r="6.7"/>
<g>
	<text transform="matrix(1 0 0 1 222.2294 104.9272)" class="st5 st9">Malawi</text>
</g>
<circle class="st10" cx="531.6" cy="61.7" r="6.6"/>
<g>
	<text transform="matrix(1 0 0 1 518.4254 73.4387)" class="st5 st9">Botswana</text>
</g>
<circle class="st10" cx="464.9" cy="61.7" r="6.2"/>
<g>
	<text transform="matrix(1 0 0 1 440.9064 73.4384)" class="st5 st9">Congo (Kinshasa)</text>
</g>
<circle class="st10" cx="398.2" cy="61.7" r="6.2"/>
<g>
	<text transform="matrix(1 0 0 1 384.3438 73.054)" class="st5 st9">Zimbabwe</text>
</g>
<circle class="st10" cx="331.6" cy="61.7" r="6"/>
<g>
	<text transform="matrix(1 0 0 1 314.4407 73.1041)" class="st5 st9">Sierra Leone</text>
</g>
<circle class="st10" cx="264.9" cy="61.7" r="4.6"/>
<g>
	<text transform="matrix(1 0 0 1 253.2211 71.6418)" class="st5 st9">Lebanon</text>
</g>
<circle class="st10" cx="198.2" cy="61.7" r="3.6"/>
<g>
	<text transform="matrix(1 0 0 1 182.3401 71.554)" class="st5 st9">Afghanistan</text>
</g>
<circle class="st10" cx="40.8" cy="658.7" r="3.6"/>
<circle class="st10" cx="133.3" cy="658.8" r="15"/>
<polygon class="st25" points="172.7,61.7 167.9,65.8 167.9,57.6 "/>
<polygon class="st25" points="172.7,123.4 167.9,127.5 167.9,119.3 "/>
<text transform="matrix(6.123234e-17 -1 1 6.123234e-17 161.8955 130.9072)" class="st5 st9">4.042</text>
<text transform="matrix(6.123234e-17 -1 1 6.123234e-17 161.8959 69.207)" class="st5 st9">1.859</text>
<polygon class="st25" points="557.1,92.4 561.9,88.3 561.9,96.5 "/>
<text transform="matrix(6.123234e-17 -1 1 6.123234e-17 572.697 99.9072)" class="st5 st9">4.019</text>
<polygon class="st25" points="557.1,153.9 561.9,149.8 561.9,158 "/>
<polygon class="st25" points="557.1,215.5 561.9,211.4 561.9,219.6 "/>
<polygon class="st25" points="557.1,277.1 561.9,273 561.9,281.2 "/>
<polygon class="st25" points="557.1,338.5 561.9,334.4 561.9,342.6 "/>
<polygon class="st25" points="557.1,399.5 561.9,395.4 561.9,403.7 "/>
<polygon class="st25" points="557.1,461.7 561.9,457.6 561.9,465.8 "/>
<polygon class="st25" points="557.1,523.2 561.9,519.1 561.9,527.3 "/>
<polygon class="st25" points="557.1,584.7 561.9,580.6 561.9,588.8 "/>
<polygon class="st25" points="557.1,646.3 561.9,642.2 561.9,650.4 "/>
<polygon class="st25" points="557.1,706.6 561.9,702.5 561.9,710.8 "/>
<polygon class="st25" points="557.1,769.4 561.9,765.3 561.9,773.5 "/>
<polygon class="st25" points="172.7,184.7 167.9,188.8 167.9,180.6 "/>
<polygon class="st25" points="172.7,247.6 167.9,251.8 167.9,243.5 "/>
<polygon class="st25" points="172.7,309 167.9,313.2 167.9,304.9 "/>
<polygon class="st25" points="172.7,369.4 167.9,373.5 167.9,365.3 "/>
<polygon class="st25" points="172.7,426.9 167.9,431 167.9,422.7 "/>
<polygon class="st25" points="172.7,492.5 167.9,496.6 167.9,488.3 "/>
<polygon class="st25" points="172.7,554 167.9,558.1 167.9,549.9 "/>
<polygon class="st25" points="172.7,615.5 167.9,619.6 167.9,611.4 "/>
<polygon class="st25" points="172.7,678.8 167.9,682.9 167.9,674.7 "/>
<polygon class="st25" points="172.7,738.8 167.9,743 167.9,734.7 "/>
<polygon class="st25" points="172.7,801.6 167.9,805.7 167.9,797.5 "/>
<text transform="matrix(6.123234e-17 -1 1 6.123234e-17 161.8953 192.207)" class="st5 st9">4.393</text>
<text transform="matrix(6.123234e-17 -1 1 6.123234e-17 162.0527 255.1484)" class="st5 st9">4.638</text>
<text transform="matrix(6.123234e-17 -1 1 6.123234e-17 162.1258 315.207)" class="st5 st9">5.053</text>
<text transform="matrix(6.123234e-17 -1 1 6.123234e-17 162.1993 376.9072)" class="st5 st9">5.308</text>
<text transform="matrix(6.123234e-17 -1 1 6.123234e-17 162.1991 433.6475)" class="st5 st9">5.633</text>
<text transform="matrix(6.123234e-17 -1 1 6.123234e-17 162.1992 499.9082)" class="st5 st9">5.843</text>
<text transform="matrix(6.123234e-17 -1 1 6.123234e-17 161.8955 561.5068)" class="st5 st9">6.125</text>
<text transform="matrix(6.123234e-17 -1 1 6.123234e-17 161.8955 623.0068)" class="st5 st9">6.265</text>
<text transform="matrix(6.123234e-17 -1 1 6.123234e-17 162.1261 686.3086)" class="st5 st9">6.535</text>
<text transform="matrix(6.123234e-17 -1 1 6.123234e-17 161.8951 746.1074)" class="st5 st9">6.892</text>
<text transform="matrix(6.123234e-17 -1 1 6.123234e-17 161.6998 809.1074)" class="st5 st9">7.403</text>
<text transform="matrix(6.123234e-17 -1 1 6.123234e-17 572.5375 161.2178)" class="st5 st9">4.198</text>
<text transform="matrix(6.123234e-17 -1 1 6.123234e-17 571.041 221.6777)" class="st5 st9">4.501</text>
<text transform="matrix(6.123234e-17 -1 1 6.123234e-17 571.1141 284.6104)" class="st5 st9">4.941</text>
<text transform="matrix(6.123234e-17 -1 1 6.123234e-17 571.1873 346.1074)" class="st5 st9">5.254</text>
<text transform="matrix(6.123234e-17 -1 1 6.123234e-17 571.2604 406.8447)" class="st5 st9">5.523</text>
<text transform="matrix(6.123234e-17 -1 1 6.123234e-17 571.0413 469.207)" class="st5 st9">5.763</text>
<text transform="matrix(6.123234e-17 -1 1 6.123234e-17 571.3337 531.9004)" class="st5 st9">6.014</text>
<text transform="matrix(6.123234e-17 -1 1 6.123234e-17 571.0414 592.207)" class="st5 st9">6.150</text>
<text transform="matrix(6.123234e-17 -1 1 6.123234e-17 571.0411 653.8086)" class="st5 st9">6.436</text>
<text transform="matrix(6.123234e-17 -1 1 6.123234e-17 571.4069 714.1914)" class="st5 st9">6.650</text>
<text transform="matrix(6.123234e-17 -1 1 6.123234e-17 571.4797 776.1738)" class="st5 st9">7.123</text>
<line class="st3" x1="40.8" y1="659.7" x2="133.3" y2="659.7"/>
</svg>
