<?xml version="1.0" encoding="utf-8"?>
<!-- Generator: Adobe Illustrator 27.7.0, SVG Export Plug-In . SVG Version: 6.00 Build 0)  -->
<svg version="1.1" id="mySVG" xmlns="http://www.w3.org/2000/svg" xmlns:xlink="http://www.w3.org/1999/xlink" x="0px" y="0px"
	 viewBox="0 0 595 842" style="enable-background:new 0 0 595 842;" xml:space="preserve">
<style type="text/css">
	.st0{fill:#FFFFFF;stroke:#000000;stroke-miterlimit:10;}
	.st1{fill:#008080;}
	.st2{font-family:'ArialMT';}
	.st3{font-size:10px;}
	.st4{opacity:0.5;}
	.st5{fill:none;stroke:#000000;}
	.st6{font-size:8px;}
	.st7{enable-background:new    ;}
	.st8{letter-spacing:33;}
	.st9{font-family:'MyriadPro-Regular';}
	.st10{font-size:18px;}
	.st11{font-size:12px;}
</style>
<rect x="-22" y="-20.1" class="st0" width="634.7" height="879.5"/>
<g>
	<circle class="st1" cx="186.1" cy="317.4" r="7.8"/>
	<text transform="matrix(1 0 0 1 168.3535 336.202)" class="st1 st2 st3">Finland: 7.804</text>
	<text transform="matrix(1 0 0 1 141.6294 348.202)" class="st1 st2 st3">happiest country in the world</text>
</g>
<g class="st4">
	<circle class="st5" cx="384.3" cy="729.2" r="7.6"/>
	<text transform="matrix(1 0 0 1 362.6277 747.797)" class="st2 st6">Denmark:</text>
	<text transform="matrix(1 0 0 1 371.7879 759.7971)" class="st2 st6">7.586</text>
</g>
<g class="st4">
	<circle class="st5" cx="418.3" cy="507.4" r="7.5"/>
	<text transform="matrix(1 0 0 1 400.7902 525.9232)" class="st2 st6">Iceland:</text>
	<text transform="matrix(1 0 0 1 405.7902 537.9232)" class="st2 st6">7.530</text>
</g>
<g class="st4">
	<circle class="st5" cx="62.8" cy="28.9" r="7.5"/>
	<text transform="matrix(1 0 0 1 49.1353 47.3322)" class="st2 st6">Israel:</text>
	<text transform="matrix(1 0 0 1 50.2388 59.3322)" class="st2 st6">7.473</text>
</g>
<g class="st4">
	<circle class="st5" cx="334.8" cy="317.1" r="7.4"/>
	<text transform="matrix(1 0 0 1 306.4997 335.4897)" class="st2 st6">Netherlands:</text>
	<text transform="matrix(1 0 0 1 322.3371 347.4897)" class="st2 st6">7.403</text>
</g>
<g class="st4">
	<circle class="st5" cx="133.5" cy="98.2" r="7.4"/>
	<text transform="matrix(1 0 0 1 114.0607 116.6368)" class="st2 st6">Sweden:</text>
	<text transform="matrix(1 0 0 1 121.0065 128.6368)" class="st2 st6">7.395</text>
</g>
<g>
	<circle class="st1" cx="520.8" cy="24.3" r="7.3"/>
	<text transform="matrix(1 0 0 1 490.9739 43.1017)" class="st1 st2 st3">Norway:7.315</text>
	<text transform="matrix(1 0 0 1 471.3014 55.1017)" class="st1 st2 st3">bucket list: northern lights</text>
</g>
<g class="st4">
	<circle class="st5" cx="277.4" cy="149.7" r="7.2"/>
	<text transform="matrix(1 0 0 1 250.1477 167.9772)" class="st2 st6">Switzerland:</text>
	<text transform="matrix(1 0 0 1 264.8694 179.9772)" class="st2 st6">7.240</text>
</g>
<g class="st4">
	<circle class="st5" cx="226.1" cy="803.5" r="7.2"/>
	<text transform="matrix(1 0 0 1 196.9468 821.6803)" class="st2 st6">Luxembourg:</text>
	<text transform="matrix(1 0 0 1 213.6191 833.6803)" class="st2 st6">7.228</text>
</g>
<g class="st4">
	<circle class="st5" cx="267.9" cy="484.1" r="7.1"/>
	<text transform="matrix(1 0 0 1 237.0507 502.2455)" class="st2 st6">New Zealand:</text>
	<text transform="matrix(1 0 0 1 255.3881 514.2455)" class="st2 st6">7.123</text>
</g>
<g class="st4">
	<circle class="st5" cx="500" cy="716.1" r="7.1"/>
	<text transform="matrix(1 0 0 1 483.0737 734.1935)" class="st2 st6">Austria:</text>
	<text transform="matrix(1 0 0 1 487.5121 746.1935)" class="st2 st6">7.097</text>
</g>
<g class="st4">
	<circle class="st5" cx="337.4" cy="367.9" r="7.1"/>
	<text transform="matrix(1 0 0 1 316.5412 385.9497)" class="st2 st6">Australia:</text>
	<text transform="matrix(1 0 0 1 324.8713 397.9497)" class="st2 st6">7.095</text>
</g>
<g class="st4">
	<circle class="st5" cx="110.2" cy="803.8" r="7"/>
	<text transform="matrix(1 0 0 1 91.2979 821.7374)" class="st2 st6">Canada:</text>
	<text transform="matrix(1 0 0 1 97.6895 833.7374)" class="st2 st6">6.961</text>
</g>
<g class="st4">
	<circle class="st5" cx="239.2" cy="649.7" r="6.9"/>
	<text transform="matrix(1 0 0 1 222.489 667.577)" class="st2 st6">Ireland:</text>
	<text transform="matrix(1 0 0 1 227.0252 679.577)" class="st2 st6">6.911</text>
</g>
<g>
	
		<ellipse transform="matrix(9.089791e-03 -1 1 9.089791e-03 -449.0154 586.5783)" class="st1" cx="71.5" cy="519.8" rx="6.9" ry="6.9"/>
	<text transform="matrix(1 0 0 1 22.0534 537.741)" class="st1 st2 st3">United States: 6.894</text>
	<text transform="matrix(1 0 0 1 6.9474 549.741)" class="st1 st2 st3">current country of residence</text>
</g>
<g>
	<circle class="st1" cx="133.1" cy="757.8" r="6.9"/>
	<text transform="matrix(1 0 0 1 111.1155 775.6932)" class="st1 st2 st3">Germany: 6.892</text>
	<text transform="matrix(1 0 0 1 109.5539 787.6932)" class="st1 st2 st3">great museums</text>
</g>
<g class="st4">
	<circle class="st5" cx="516.9" cy="545.7" r="6.9"/>
	<text transform="matrix(1 0 0 1 497.4704 563.5607)" class="st2 st6">Belgium:</text>
	<text transform="matrix(1 0 0 1 504.4113 575.5607)" class="st2 st6">6.859</text>
</g>
<g class="st4">
	<circle class="st5" cx="242.3" cy="533.2" r="6.8"/>
	<text transform="matrix(1 0 0 1 222.8941 551.0878)" class="st2 st6">Czechia:</text>
	<text transform="matrix(1 0 0 1 229.8351 563.0878)" class="st2 st6">6.845</text>
</g>
<g>
	<circle class="st1" cx="170.6" cy="160.1" r="6.8"/>
	<text transform="matrix(1 0 0 1 121.12 177.8615)" class="st1 st2 st3">United Kingdom: 6.796</text>
	<text transform="matrix(1 0 0 1 118.4977 189.2971)" class="st1 st2 st3">my sister-in-law’s country</text>
</g>
<g class="st4">
	<circle class="st5" cx="86" cy="766.8" r="6.8"/>
	<text transform="matrix(1 0 0 1 64.2672 784.5993)" class="st2 st6">Lithuania:</text>
	<text transform="matrix(1 0 0 1 73.4396 796.5993)" class="st2 st6">6.763</text>
</g>
<g class="st4">
	<circle class="st5" cx="413.3" cy="766.8" r="6.7"/>
	<text transform="matrix(1 0 0 1 396.3607 784.4971)" class="st2 st6">France:</text>
	<text transform="matrix(1 0 0 1 400.7991 796.4971)" class="st2 st6">6.661</text>
</g>
<g class="st4">
	<circle class="st5" cx="571.1" cy="395" r="6.7"/>
	<text transform="matrix(1 0 0 1 550.5383 412.6005)" class="st2 st6">Slovenia:</text>
	<text transform="matrix(1 0 0 1 558.5949 424.6005)" class="st2 st6">6.650</text>
</g>
<g class="st4">
	<circle class="st5" cx="561.3" cy="516.4" r="6.6"/>
	<text transform="matrix(1 0 0 1 535.4855 534.0551)" class="st2 st6">Costa Rica:</text>
	<text transform="matrix(1 0 0 1 548.8156 546.0551)" class="st2 st6">6.609</text>
</g>
<g class="st4">
	<circle class="st5" cx="191.5" cy="519.8" r="6.6"/>
	<text transform="matrix(1 0 0 1 170.1341 537.3746)" class="st2 st6">Romania:</text>
	<text transform="matrix(1 0 0 1 179.0209 549.3746)" class="st2 st6">6.589</text>
</g>
<g>
	<circle class="st1" cx="491.8" cy="123.9" r="6.6"/>
	<text transform="matrix(1 0 0 1 443.1259 141.439)" class="st7"><tspan x="0" y="0" class="st1 st2 st3 st8">	</tspan><tspan x="36" y="0" class="st1 st2 st3">UAE: 6.571</tspan></text>
	<text transform="matrix(1 0 0 1 479.2465 153.439)" class="st1 st2 st3">most layovers</text>
</g>
<g class="st4">
	<circle class="st5" cx="479.2" cy="625.3" r="6.5"/>
	<text transform="matrix(1 0 0 1 421.4032 642.8703)" class="st2 st6">Taiwan Province of China:</text>
	<text transform="matrix(1 0 0 1 466.6986 654.8703)" class="st2 st6">6.535</text>
</g>
<g class="st4">
	<circle class="st5" cx="446.5" cy="708.4" r="6.5"/>
	<text transform="matrix(1 0 0 1 426.1882 725.9167)" class="st2 st6">Uruguay:</text>
	<text transform="matrix(1 0 0 1 433.9641 737.9167)" class="st2 st6">6.494</text>
</g>
<g class="st4">
	<circle class="st5" cx="565.8" cy="129.9" r="6.5"/>
	<text transform="matrix(1 0 0 1 545.5551 147.361)" class="st2 st6">Slovakia:</text>
	<text transform="matrix(1 0 0 1 553.3309 159.361)" class="st2 st6">6.469</text>
</g>
<g class="st4">
	<circle class="st5" cx="561.8" cy="337" r="6.5"/>
	<text transform="matrix(1 0 0 1 532.0824 354.478)" class="st2 st6">Saudi Arabia:</text>
	<text transform="matrix(1 0 0 1 549.3138 366.478)" class="st2 st6">6.463</text>
</g>
<g class="st4">
	<circle class="st5" cx="384.4" cy="348.2" r="6.5"/>
	<text transform="matrix(1 0 0 1 366.291 365.658)" class="st2 st6">Estonia:</text>
	<text transform="matrix(1 0 0 1 371.8452 377.658)" class="st2 st6">6.455</text>
</g>
<g>
	<circle class="st1" cx="340.4" cy="687.1" r="6.4"/>
	<text transform="matrix(1 0 0 1 309.8303 704.574)" class="st1 st2 st3">Spain: 6.436</text>
	<text transform="matrix(1 0 0 1 275.241 716.574)" class="st1 st2 st3">my brother’s country of residence</text>
</g>
<g class="st4">
	<circle class="st5" cx="519.9" cy="237.8" r="6.4"/>
	<text transform="matrix(1 0 0 1 509.3832 255.2133)" class="st2 st6">Italy:</text>
	<text transform="matrix(1 0 0 1 507.4301 267.2133)" class="st2 st6">6.405</text>
</g>
<g class="st4">
	<circle class="st5" cx="332.9" cy="624.3" r="6.4"/>
	<text transform="matrix(1 0 0 1 314.7916 641.6648)" class="st2 st6">Kosovo:</text>
	<text transform="matrix(1 0 0 1 320.3458 653.6648)" class="st2 st6">6.368</text>
</g>
<g class="st4">
	<circle class="st5" cx="88.1" cy="88.7" r="6.3"/>
	<text transform="matrix(1 0 0 1 75.2868 106.0225)" class="st2 st6">Chile:</text>
	<text transform="matrix(1 0 0 1 75.5578 118.0225)" class="st2 st6">6.334</text>
</g>
<g class="st4">
	<circle class="st5" cx="106.2" cy="328.6" r="6.3"/>
	<text transform="matrix(1 0 0 1 88.9447 345.9733)" class="st2 st6">Mexico:</text>
	<text transform="matrix(1 0 0 1 93.6591 357.9733)" class="st2 st6">6.330</text>
</g>
<g class="st4">
	<circle class="st5" cx="200.9" cy="764" r="6.3"/>
	<text transform="matrix(1 0 0 1 187.3017 781.2619)" class="st2 st6">Malta:</text>
	<text transform="matrix(1 0 0 1 188.4052 793.2619)" class="st2 st6">6.300</text>
</g>
<g class="st4">
	<circle class="st5" cx="475.2" cy="184.8" r="6.3"/>
	<text transform="matrix(1 0 0 1 455.2068 202.0581)" class="st2 st6">Panama:</text>
	<text transform="matrix(1 0 0 1 462.7068 214.0581)" class="st2 st6">6.265</text>
</g>
<g class="st4">
	<circle class="st5" cx="325.8" cy="39.2" r="6.3"/>
	<text transform="matrix(1 0 0 1 308.8738 56.4819)" class="st2 st6">Poland:</text>
	<text transform="matrix(1 0 0 1 313.3196 68.4819)" class="st2 st6">6.260</text>
</g>
<g class="st4">
	<circle class="st5" cx="53.2" cy="429.4" r="6.3"/>
	<text transform="matrix(1 0 0 1 28.98 446.6595)" class="st2 st6">Nicaragua:</text>
	<text transform="matrix(1 0 0 1 40.6475 458.6595)" class="st2 st6">6.259</text>
</g>
<g class="st4">
	<circle class="st5" cx="572.7" cy="607.6" r="6.2"/>
	<text transform="matrix(1 0 0 1 557.9653 624.8351)" class="st2 st6">Latvia:</text>
	<text transform="matrix(1 0 0 1 560.1846 636.8351)" class="st2 st6">6.213</text>
</g>
<g class="st4">
	<circle class="st5" cx="400.5" cy="463.3" r="6.2"/>
	<text transform="matrix(1 0 0 1 381.9011 480.5048)" class="st2 st6">Bahrain:</text>
	<text transform="matrix(1 0 0 1 388.012 492.5048)" class="st2 st6">6.173</text>
</g>
<g class="st4">
	<circle class="st5" cx="529" cy="367.3" r="6.2"/>
	<text transform="matrix(1 0 0 1 503.1372 384.4396)" class="st2 st6">Guatemala:</text>
	<text transform="matrix(1 0 0 1 516.4722 396.4396)" class="st2 st6">6.150</text>
</g>
<g class="st4">
	<circle class="st5" cx="546.2" cy="80.4" r="6.1"/>
	<text transform="matrix(1 0 0 1 524.2944 97.8647)" class="st2 st6">Kazakhstan:</text>
	<text transform="matrix(1 0 0 1 539.2993 109.8647)" class="st2 st6">6.144</text>
</g>
<g class="st4">
	<circle class="st5" cx="383.4" cy="525" r="6.1"/>
	<text transform="matrix(1 0 0 1 367.5584 542.1815)" class="st2 st6">Serbia:</text>
	<text transform="matrix(1 0 0 1 370.8885 554.1815)" class="st2 st6">6.144</text>
</g>
<g class="st4">
	<circle class="st5" cx="25" cy="805" r="6.1"/>
	<text transform="matrix(1 0 0 1 7.8051 822.167)" class="st2 st6">Cyprus:</text>
	<text transform="matrix(1 0 0 1 12.5195 834.167)" class="st2 st6">6.130</text>
</g>
<g class="st4">
	<circle class="st5" cx="378.3" cy="598.8" r="6.1"/>
	<text transform="matrix(1 0 0 1 363.3111 615.966)" class="st2 st6">Japan:</text>
	<text transform="matrix(1 0 0 1 365.8111 627.966)" class="st2 st6">6.129</text>
</g>
<g class="st4">
	<circle class="st5" cx="160.7" cy="684" r="6.1"/>
	<text transform="matrix(1 0 0 1 143.1559 701.1456)" class="st2 st6">Croatia:</text>
	<text transform="matrix(1 0 0 1 148.151 713.1456)" class="st2 st6">6.125</text>
</g>
<g class="st4">
	<circle class="st5" cx="34.8" cy="662" r="6.1"/>
	<text transform="matrix(1 0 0 1 20.9131 679.1453)" class="st2 st6">Brazil:</text>
	<text transform="matrix(1 0 0 1 22.2924 691.1453)" class="st2 st6">6.125</text>
</g>
<g class="st4">
	<circle class="st5" cx="70.4" cy="568.5" r="6.1"/>
	<text transform="matrix(1 0 0 1 43.4346 585.5983)" class="st2 st6">El Salvador:</text>
	<text transform="matrix(1 0 0 1 57.8804 597.5983)" class="st2 st6">6.122</text>
</g>
<g class="st4">
	<circle class="st5" cx="45.5" cy="273.8" r="6"/>
	<text transform="matrix(1 0 0 1 25.1642 290.8495)" class="st2 st6">Hungary:</text>
	<text transform="matrix(1 0 0 1 32.9401 302.8495)" class="st2 st6">6.041</text>
</g>
<g class="st4">
	<circle class="st5" cx="84.8" cy="141.4" r="6"/>
	<text transform="matrix(1 0 0 1 62.0524 158.4161)" class="st2 st6">Argentina:</text>
	<text transform="matrix(1 0 0 1 72.3332 170.416)" class="st2 st6">6.024</text>
</g>
<g class="st4">
	<circle class="st5" cx="481.9" cy="383.5" r="6"/>
	<text transform="matrix(1 0 0 1 458.8719 400.4735)" class="st2 st6">Honduras:</text>
	<text transform="matrix(1 0 0 1 469.4286 412.4735)" class="st2 st6">6.023</text>
</g>
<g class="st4">
	<circle class="st5" cx="471.8" cy="753.1" r="6"/>
	<text transform="matrix(1 0 0 1 445.6779 770.1592)" class="st2 st6">Uzbekistan:</text>
	<text transform="matrix(1 0 0 1 459.2887 782.1592)" class="st2 st6">6.014</text>
</g>
<g class="st4">
	<circle class="st5" cx="168" cy="592.1" r="6"/>
	<text transform="matrix(1 0 0 1 146.9064 609.1592)" class="st2 st6">Malaysia:</text>
	<text transform="matrix(1 0 0 1 155.5123 621.1592)" class="st2 st6">6.012</text>
</g>
<g class="st4">
	<circle class="st5" cx="34.5" cy="146.3" r="6"/>
	<text transform="matrix(1 0 0 1 14.4481 163.2894)" class="st2 st6">Portugal:</text>
	<text transform="matrix(1 0 0 1 21.9482 175.2894)" class="st2 st6">5.968</text>
</g>
<g class="st4">
	<circle class="st5" cx="263.9" cy="721" r="6"/>
	<text transform="matrix(1 0 0 1 234.7453 737.9046)" class="st2 st6">South Korea:</text>
	<text transform="matrix(1 0 0 1 251.4201 749.9046)" class="st2 st6">5.951</text>
</g>
<g class="st4">
	<circle class="st5" cx="330.3" cy="438.2" r="5.9"/>
	<text transform="matrix(1 0 0 1 312.5179 455.1225)" class="st2 st6">Greece:</text>
	<text transform="matrix(1 0 0 1 317.7914 467.1225)" class="st2 st6">5.931</text>
</g>
<g class="st4">
	<circle class="st5" cx="211.8" cy="16.2" r="5.9"/>
	<text transform="matrix(1 0 0 1 190.1687 33.1241)" class="st2 st6">Mauritius:</text>
	<text transform="matrix(1 0 0 1 199.3289 45.1241)" class="st2 st6">5.902</text>
</g>
<g class="st4">
	
		<ellipse transform="matrix(4.504362e-03 -1 1 4.504362e-03 -434.8652 501.9794)" class="st5" cx="34.7" cy="469.4" rx="5.8" ry="5.8"/>
	<text transform="matrix(1 0 0 1 14.1213 486.2469)" class="st2 st6">Thailand:</text>
	<text transform="matrix(1 0 0 1 22.178 498.2469)" class="st2 st6">5.843</text>
</g>
<g class="st4">
	<circle class="st5" cx="306.8" cy="734.9" r="5.8"/>
	<text transform="matrix(1 0 0 1 285.1591 751.711)" class="st2 st6">Mongolia:</text>
	<text transform="matrix(1 0 0 1 294.3266 763.711)" class="st2 st6">5.840</text>
</g>
<g class="st4">
	<circle class="st5" cx="559.3" cy="742.5" r="5.8"/>
	<text transform="matrix(1 0 0 1 533.1464 759.3701)" class="st2 st6">Kyrgyzstan:</text>
	<text transform="matrix(1 0 0 1 546.7548 771.3701)" class="st2 st6">5.825</text>
</g>
<g class="st4">
	<circle class="st5" cx="110.5" cy="589.9" r="5.8"/>
	<text transform="matrix(1 0 0 1 90.1871 606.728)" class="st2 st6">Moldova:</text>
	<text transform="matrix(1 0 0 1 97.963 618.728)" class="st2 st6">5.819</text>
</g>
<g class="st4">
	<circle class="st5" cx="38" cy="758.3" r="5.8"/>
	<text transform="matrix(1 0 0 1 23.5211 775.0746)" class="st2 st6">China:</text>
	<text transform="matrix(1 0 0 1 25.462 787.0746)" class="st2 st6">5.818</text>
</g>
<g class="st4">
	<circle class="st5" cx="32.1" cy="75.1" r="5.8"/>
	<text transform="matrix(1 0 0 1 12.506 91.8645)" class="st2 st6">Vietnam:</text>
	<text transform="matrix(1 0 0 1 19.6349 103.8644)" class="st2 st6">5.763</text>
</g>
<g class="st4">
	<circle class="st5" cx="96.6" cy="382.2" r="5.7"/>
	<text transform="matrix(1 0 0 1 73.7904 398.8941)" class="st2 st6">Paraguay:</text>
	<text transform="matrix(1 0 0 1 84.0711 410.8941)" class="st2 st6">5.738</text>
</g>
<g class="st4">
	<circle class="st5" cx="64.3" cy="190.1" r="5.7"/>
	<text transform="matrix(1 0 0 1 36.2619 206.7979)" class="st2 st6">Montenegro:</text>
	<text transform="matrix(1 0 0 1 51.8235 218.7979)" class="st2 st6">5.722</text>
</g>
<g class="st4">
	<circle class="st5" cx="436.1" cy="39.2" r="5.7"/>
	<text transform="matrix(1 0 0 1 416.1207 55.9249)" class="st2 st6">Jamaica:</text>
	<text transform="matrix(1 0 0 1 423.6158 67.9249)" class="st2 st6">5.703</text>
</g>
<g class="st4">
	<circle class="st5" cx="211.2" cy="108.6" r="5.7"/>
	<text transform="matrix(1 0 0 1 195.038 125.2723)" class="st2 st6">Bolivia:</text>
	<text transform="matrix(1 0 0 1 198.644 137.2723)" class="st2 st6">5.684</text>
</g>
<g class="st4">
	<circle class="st5" cx="106.4" cy="458.5" r="5.7"/>
	<text transform="matrix(1 0 0 1 89.7118 475.1734)" class="st2 st6">Russia:</text>
	<text transform="matrix(1 0 0 1 93.8719 487.1734)" class="st2 st6">5.661</text>
</g>
<g class="st4">
	<circle class="st5" cx="381.4" cy="141.2" r="5.6"/>
	<text transform="matrix(1 0 0 1 325.5195 157.8215)" class="st2 st6">Bosnia and Herzegovina:</text>
	<text transform="matrix(1 0 0 1 368.8765 169.8215)" class="st2 st6">5.633</text>
</g>
<g class="st4">
	<circle class="st5" cx="408.5" cy="88.7" r="5.6"/>
	<text transform="matrix(1 0 0 1 386.0096 105.3285)" class="st2 st6">Colombia:</text>
	<text transform="matrix(1 0 0 1 396.0071 117.3285)" class="st2 st6">5.630</text>
</g>
<g class="st4">
	<circle class="st5" cx="269.6" cy="607.2" r="5.6"/>
	<text transform="matrix(1 0 0 1 223.7538 623.7969)" class="st2 st6">Dominican Republic:</text>
	<text transform="matrix(1 0 0 1 257.0961 635.7969)" class="st2 st6">5.569</text>
</g>
<g class="st4">
	<circle class="st5" cx="127.6" cy="719.9" r="5.6"/>
	<text transform="matrix(1 0 0 1 107.6026 736.4204)" class="st2 st6">Ecuador:</text>
	<text transform="matrix(1 0 0 1 115.1026 748.4204)" class="st2 st6">5.559</text>
</g>
<g class="st4">
	<circle class="st5" cx="193.7" cy="660.5" r="5.5"/>
	<text transform="matrix(1 0 0 1 181.711 677.0113)" class="st2 st6">Peru:</text>
	<text transform="matrix(1 0 0 1 181.1495 689.0113)" class="st2 st6">5.526</text>
</g>
<g>
	<circle class="st1" cx="482.3" cy="429.2" r="5.5"/>
	<text transform="matrix(1 0 0 1 441.6919 445.7521)" class="st1 st2 st3">Philippines: 5.523</text>
	<text transform="matrix(1 0 0 1 426.751 457.7521)" class="st1 st2 st3">my brother’s higher studies</text>
</g>
<g class="st4">
	<circle class="st5" cx="245.4" cy="58.4" r="5.5"/>
	<text transform="matrix(1 0 0 1 225.6519 74.873)" class="st2 st6">Bulgaria:</text>
	<text transform="matrix(1 0 0 1 232.8736 86.873)" class="st2 st6">5.466</text>
</g>
<g>
	<circle class="st1" cx="321.6" cy="552.8" r="5.4"/>
	<text transform="matrix(1 0 0 1 294.9346 571.0652)" class="st1 st2 st3">Nepal: 5.360</text>
	<text transform="matrix(1 0 0 1 270.8293 583.0652)" class="st1 st2 st3">bucket list: mt.everest</text>
</g>
<g class="st4">
	<circle class="st5" cx="118.1" cy="45.7" r="5.3"/>
	<text transform="matrix(1 0 0 1 98.0576 62.0432)" class="st2 st6">Armenia:</text>
	<text transform="matrix(1 0 0 1 105.5527 74.0432)" class="st2 st6">5.342</text>
</g>
<g class="st4">
	<circle class="st5" cx="386.6" cy="654.7" r="5.3"/>
	<text transform="matrix(1 0 0 1 364.6818 671.0096)" class="st2 st6">Tajikistan:</text>
	<text transform="matrix(1 0 0 1 374.1227 683.0096)" class="st2 st6">5.330</text>
</g>
<g class="st4">
	<circle class="st5" cx="424.5" cy="312.5" r="5.3"/>
	<text transform="matrix(1 0 0 1 407.5821 328.8201)" class="st2 st6">Algeria:</text>
	<text transform="matrix(1 0 0 1 412.023 340.8201)" class="st2 st6">5.329</text>
</g>
<g class="st4">
	<circle class="st5" cx="437.1" cy="804.7" r="5.3"/>
	<text transform="matrix(1 0 0 1 415.7734 821.7273)" class="st2 st6">Hong Kong:</text>
	<text transform="matrix(1 0 0 1 426.82 832.4109)" class="st2 st6">5.308</text>
</g>
<g class="st4">
	<circle class="st5" cx="288.4" cy="655.5" r="5.3"/>
	<text transform="matrix(1 0 0 1 270.3515 671.742)" class="st2 st6">Albania:</text>
	<text transform="matrix(1 0 0 1 275.9081 683.742)" class="st2 st6">5.277</text>
</g>
<g class="st4">
	<circle class="st5" cx="474.6" cy="81.8" r="5.3"/>
	<text transform="matrix(1 0 0 1 451.5388 98.1179)" class="st2 st6">Indonesia:</text>
	<text transform="matrix(1 0 0 1 462.1003 110.1179)" class="st2 st6">5.277</text>
</g>
<g class="st4">
	<circle class="st5" cx="448.5" cy="661.7" r="5.3"/>
	<text transform="matrix(1 0 0 1 420.1166 677.9647)" class="st2 st6">South Africa:</text>
	<text transform="matrix(1 0 0 1 435.954 689.9647)" class="st2 st6">5.275</text>
</g>
<g class="st4">
	<circle class="st5" cx="148.2" cy="550.9" r="5.3"/>
	<text transform="matrix(1 0 0 1 103.2089 567.1212)" class="st2 st6">Congo (Brazzaville):</text>
	<text transform="matrix(1 0 0 1 135.7137 579.1212)" class="st2 st6">5.267</text>
</g>
<g class="st4">
	<circle class="st5" cx="272.6" cy="413" r="5.3"/>
	<text transform="matrix(1 0 0 1 233.1732 429.2314)" class="st2 st6">North Macedonia:</text>
	<text transform="matrix(1 0 0 1 260.1263 441.2314)" class="st2 st6">5.254</text>
</g>
<g class="st4">
	<circle class="st5" cx="381" cy="411" r="5.2"/>
	<text transform="matrix(1 0 0 1 356.215 427.1673)" class="st2 st6">Venezuela:</text>
	<text transform="matrix(1 0 0 1 368.8175 439.1673)" class="st2 st6">5.211</text>
</g>
<g class="st4">
	<circle class="st5" cx="320.1" cy="775.5" r="5.1"/>
	<text transform="matrix(1 0 0 1 307.8701 791.5933)" class="st2 st6">Laos:</text>
	<text transform="matrix(1 0 0 1 308.3315 803.5933)" class="st2 st6">5.111</text>
</g>
<g class="st4">
	<circle class="st5" cx="202.9" cy="713.1" r="5.1"/>
	<text transform="matrix(1 0 0 1 183.7043 729.2444)" class="st2 st6">Georgia:</text>
	<text transform="matrix(1 0 0 1 190.3693 741.2444)" class="st2 st6">5.109</text>
</g>
<g class="st4">
	<circle class="st5" cx="564.5" cy="801.7" r="5.1"/>
	<text transform="matrix(1 0 0 1 550.0356 817.7937)" class="st2 st6">Guinea:</text>
	<text transform="matrix(1 0 0 1 555.0356 827.7937)" class="st2 st6">5.072</text>
</g>
<g class="st4">
	<circle class="st5" cx="508.7" cy="780.3" r="5.1"/>
	<text transform="matrix(1 0 0 1 493.1089 796.3977)" class="st2 st6">Ukraine:</text>
	<text transform="matrix(1 0 0 1 499.2148 808.3977)" class="st2 st6">5.071</text>
</g>
<g class="st4">
	<circle class="st5" cx="527.6" cy="190.1" r="5.1"/>
	<text transform="matrix(1 0 0 1 500.9121 206.129)" class="st2 st6">Ivory Coast:</text>
	<text transform="matrix(1 0 0 1 515.0747 218.129)" class="st2 st6">5.053</text>
</g>
<g class="st4">
	
		<ellipse transform="matrix(1 -2.262420e-03 2.262420e-03 1 -1.6042 5.728572e-02)" class="st5" cx="24.5" cy="709.1" rx="5" ry="5"/>
	<text transform="matrix(1 0 0 1 8.1171 725.1132)" class="st2 st6">Gabon:</text>
	<text transform="matrix(1 0 0 1 12.0062 737.1132)" class="st2 st6">5.035</text>
</g>
<g class="st4">
	<circle class="st5" cx="330.5" cy="484.3" r="5"/>
	<text transform="matrix(1 0 0 1 313.2809 500.2498)" class="st2 st6">Nigeria:</text>
	<text transform="matrix(1 0 0 1 317.9977 512.2498)" class="st2 st6">4.981</text>
</g>
<g class="st4">
	<circle class="st5" cx="463.8" cy="471.4" r="5"/>
	<text transform="matrix(1 0 0 1 439.0793 487.3337)" class="st2 st6">Cameroon:</text>
	<text transform="matrix(1 0 0 1 451.301 499.3337)" class="st2 st6">4.973</text>
</g>
<g class="st4">
	<circle class="st5" cx="50.7" cy="354.7" r="5"/>
	<text transform="matrix(1 0 0 1 20.7305 370.703)" class="st2 st6">Mozambique:</text>
	<text transform="matrix(1 0 0 1 38.233 382.703)" class="st2 st6">4.954</text>
</g>
<g class="st4">
	<circle class="st5" cx="347.4" cy="101" r="4.9"/>
	<text transform="matrix(1 0 0 1 337.3564 116.9254)" class="st2 st6">Iraq:</text>
	<text transform="matrix(1 0 0 1 334.8491 128.9254)" class="st2 st6">4.941</text>
</g>
<g class="st4">
	<circle class="st5" cx="148.6" cy="406.5" r="4.9"/>
	<text transform="matrix(1 0 0 1 107.9906 422.4559)" class="st2 st6">State of Palestine:</text>
	<text transform="matrix(1 0 0 1 136.0594 434.4559)" class="st2 st6">4.908</text>
</g>
<g class="st4">
	<circle class="st5" cx="28.7" cy="223.5" r="4.9"/>
	<text transform="matrix(1 0 0 1 8.1807 239.3871)" class="st2 st6">Morocco:</text>
	<text transform="matrix(1 0 0 1 16.2301 251.3871)" class="st2 st6">4.903</text>
</g>
<g class="st4">
	<circle class="st5" cx="368" cy="54.3" r="4.9"/>
	<text transform="matrix(1 0 0 1 358.0383 70.1893)" class="st2 st6">Iran:</text>
	<text transform="matrix(1 0 0 1 355.531 82.1893)" class="st2 st6">4.876</text>
</g>
<g class="st4">
	<circle class="st5" cx="462.6" cy="580" r="4.9"/>
	<text transform="matrix(1 0 0 1 442.9098 595.8312)" class="st2 st6">Senegal:</text>
	<text transform="matrix(1 0 0 1 450.1364 607.8312)" class="st2 st6">4.855</text>
</g>
<g class="st4">
	<circle class="st5" cx="291.8" cy="92.4" r="4.7"/>
	<text transform="matrix(1 0 0 1 267.0369 108.0883)" class="st2 st6">Mauritania:</text>
	<text transform="matrix(1 0 0 1 279.2586 120.0884)" class="st2 st6">4.724</text>
</g>
<g class="st4">
	<circle class="st5" cx="42" cy="604.7" r="4.6"/>
	<text transform="matrix(1 0 0 1 11.1045 620.3021)" class="st2 st6">Burkina Faso:</text>
	<text transform="matrix(1 0 0 1 29.4395 632.3021)" class="st2 st6">4.638</text>
</g>
<g class="st4">
	<circle class="st5" cx="79.4" cy="710.1" r="4.6"/>
	<text transform="matrix(1 0 0 1 59.6795 725.7688)" class="st2 st6">Namibia:</text>
	<text transform="matrix(1 0 0 1 66.8963 737.7688)" class="st2 st6">4.631</text>
</g>
<g>
	<circle class="st1" cx="250" cy="372" r="4.6"/>
	<text transform="matrix(1 0 0 1 226.356 387.5644)" class="st1 st2 st3">Turkiye: 4.614</text>
	<text transform="matrix(1 0 0 1 216.439 399.5644)" class="st1 st2 st3">best bucklawa ever</text>
</g>
<g class="st4">
	<circle class="st5" cx="153.3" cy="482.9" r="4.6"/>
	<text transform="matrix(1 0 0 1 136.8839 498.4656)" class="st2 st6">Ghana:</text>
	<text transform="matrix(1 0 0 1 140.7731 510.4656)" class="st2 st6">4.605</text>
</g>
<g class="st4">
	<circle class="st5" cx="109.2" cy="676" r="4.6"/>
	<text transform="matrix(1 0 0 1 88.6689 691.5912)" class="st2 st6">Pakistan:</text>
	<text transform="matrix(1 0 0 1 96.7231 703.5912)" class="st2 st6">4.555</text>
</g>
<g class="st4">
	<circle class="st5" cx="430.1" cy="371" r="4.5"/>
	<text transform="matrix(1 0 0 1 416.7923 386.5149)" class="st2 st6">Niger:</text>
	<text transform="matrix(1 0 0 1 417.6175 398.5149)" class="st2 st6">4.501</text>
</g>
<g class="st4">
	<circle class="st5" cx="216.4" cy="574.6" r="4.5"/>
	<text transform="matrix(1 0 0 1 199.1259 590.1322)" class="st2 st6">Tunisia:</text>
	<text transform="matrix(1 0 0 1 203.9355 602.1322)" class="st2 st6">4.497</text>
</g>
<g class="st4">
	<circle class="st5" cx="528.5" cy="594.1" r="4.5"/>
	<text transform="matrix(1 0 0 1 512.8947 609.6039)" class="st2 st6">Kenya:</text>
	<text transform="matrix(1 0 0 1 515.9489 621.6039)" class="st2 st6">4.487</text>
</g>
<g>
	<circle class="st1" cx="129.2" cy="633.1" r="4.4"/>
	<text transform="matrix(1 0 0 1 103.6858 648.4958)" class="st1 st2 st3">Sri Lanka: 4.442</text>
	<text transform="matrix(1 0 0 1 100.6858 660.4958)" class="st1 st2 st3">bucket list: tourism</text>
</g>
<g class="st4">
	<circle class="st5" cx="469.3" cy="326.8" r="4.4"/>
	<text transform="matrix(1 0 0 1 450.4426 342.2164)" class="st2 st6">Uganda:</text>
	<text transform="matrix(1 0 0 1 456.8342 354.2164)" class="st2 st6">4.432</text>
</g>
<g class="st4">
	<circle class="st5" cx="544.1" cy="476" r="4.4"/>
	<text transform="matrix(1 0 0 1 530.7335 491.3624)" class="st2 st6">Chad:</text>
	<text transform="matrix(1 0 0 1 531.5636 503.3624)" class="st2 st6">4.397</text>
</g>
<g class="st4">
	<circle class="st5" cx="356.2" cy="761.9" r="4.4"/>
	<text transform="matrix(1 0 0 1 332.0269 777.2472)" class="st2 st6">Cambodia:</text>
	<text transform="matrix(1 0 0 1 343.6943 789.2472)" class="st2 st6">4.393</text>
</g>
<g class="st4">
	<circle class="st5" cx="480.8" cy="803.1" r="4.4"/>
	<text transform="matrix(1 0 0 1 466.6422 818.4501)" class="st2 st6">Benin:</text>
	<text transform="matrix(1 0 0 1 468.3072 830.4501)" class="st2 st6">4.374</text>
</g>
<g class="st4">
	<circle class="st5" cx="565.5" cy="279.4" r="4.4"/>
	<text transform="matrix(1 0 0 1 543.2463 294.8052)" class="st2 st6">Myanmar:</text>
	<text transform="matrix(1 0 0 1 552.9606 306.8052)" class="st2 st6">4.372</text>
</g>
<g class="st4">
	<circle class="st5" cx="180.9" cy="58.8" r="4.3"/>
	<text transform="matrix(1 0 0 1 153.1323 74.0593)" class="st2 st6">Bangladesh:</text>
	<text transform="matrix(1 0 0 1 168.4204 86.0593)" class="st2 st6">4.282</text>
</g>
<g class="st4">
	<circle class="st5" cx="294.6" cy="807" r="4.3"/>
	<text transform="matrix(1 0 0 1 275.7436 822.3108)" class="st2 st6">Gambia:</text>
	<text transform="matrix(1 0 0 1 282.1279 834.3108)" class="st2 st6">4.279</text>
</g>
<g class="st4">
	<circle class="st5" cx="418.7" cy="167.1" r="4.2"/>
	<text transform="matrix(1 0 0 1 408.1667 182.2833)" class="st2 st6">Mali:</text>
	<text transform="matrix(1 0 0 1 406.2111 194.2833)" class="st2 st6">4.198</text>
</g>
<g class="st4">
	<circle class="st5" cx="569.5" cy="186.4" r="4.2"/>
	<text transform="matrix(1 0 0 1 555.2844 201.5757)" class="st2 st6">Egypt:</text>
	<text transform="matrix(1 0 0 1 556.947 213.5757)" class="st2 st6">4.170</text>
</g>
<g class="st4">
	<circle class="st5" cx="419" cy="598.9" r="4.1"/>
	<text transform="matrix(1 0 0 1 406.7519 614.0646)" class="st2 st6">Togo:</text>
	<text transform="matrix(1 0 0 1 406.4711 626.0646)" class="st2 st6">4.137</text>
</g>
<g class="st4">
	<circle class="st5" cx="499.2" cy="505.5" r="4.1"/>
	<text transform="matrix(1 0 0 1 482.5403 520.6066)" class="st2 st6">Jordan:</text>
	<text transform="matrix(1 0 0 1 486.7054 532.6066)" class="st2 st6">4.120</text>
</g>
<g class="st4">
	<circle class="st5" cx="110" cy="268.6" r="4.1"/>
	<text transform="matrix(1 0 0 1 90.5468 283.7167)" class="st2 st6">Ethiopia:</text>
	<text transform="matrix(1 0 0 1 97.4926 295.7167)" class="st2 st6">4.091</text>
</g>
<g class="st4">
	<circle class="st5" cx="71.4" cy="648.6" r="4"/>
	<text transform="matrix(1 0 0 1 55.01 663.6379)" class="st2 st6">Liberia:</text>
	<text transform="matrix(1 0 0 1 58.8967 675.6379)" class="st2 st6">4.042</text>
</g>
<circle class="st1" cx="530.8" cy="662.1" r="4"/>
<text transform="matrix(1 0 0 1 505.6562 678.0743)" class="st1 st2 st3">India: 4.036</text>
<text transform="matrix(1 0 0 1 493.2943 688.5402)" class="st1 st2 st3">my birth country</text>
<g>
	<g>
		<circle class="st1" cx="189.3" cy="434.4" r="6.6"/>
		<text transform="matrix(1 0 0 1 165.0757 451.9666)" class="st1 st2 st3">Singapore: 6.587</text>
		<g class="st7">
		</g>
	</g>
	<text transform="matrix(1 0 0 1 137.9683 464.3405)" class="st1 st2 st3">great weekend getaway from India</text>
</g>
<g class="st4">
	<circle class="st5" cx="279.8" cy="12.8" r="4"/>
	<text transform="matrix(1 0 0 1 250.9232 27.8351)" class="st2 st6">Madagascar:</text>
	<text transform="matrix(1 0 0 1 267.3148 39.8351)" class="st2 st6">4.019</text>
</g>
<g class="st4">
	<circle class="st5" cx="215.2" cy="479.7" r="4"/>
	<text transform="matrix(1 0 0 1 197.0916 494.6673)" class="st2 st6">Zambia:</text>
	<text transform="matrix(1 0 0 1 202.641 506.6673)" class="st2 st6">3.982</text>
</g>
<g class="st4">
	<circle class="st5" cx="453.6" cy="534.9" r="3.7"/>
	<text transform="matrix(1 0 0 1 432.1707 549.5552)" class="st2 st6">Tanzania:</text>
	<text transform="matrix(1 0 0 1 441.0623 561.5552)" class="st2 st6">3.694</text>
</g>
<g class="st4">
	<circle class="st5" cx="189.1" cy="367.1" r="3.5"/>
	<text transform="matrix(1 0 0 1 167.3842 381.6604)" class="st2 st6">Comoros:</text>
	<text transform="matrix(1 0 0 1 176.5444 393.6604)" class="st2 st6">3.545</text>
</g>
<g class="st4">
	<circle class="st5" cx="392.9" cy="10.6" r="3.5"/>
	<text transform="matrix(1 0 0 1 375.9684 25.119)" class="st2 st6">Malawi:</text>
	<text transform="matrix(1 0 0 1 380.4044 37.119)" class="st2 st6">3.495</text>
</g>
<g class="st4">
	<circle class="st5" cx="261.6" cy="774.4" r="3.4"/>
	<text transform="matrix(1 0 0 1 238.252 788.8446)" class="st2 st6">Botswana:</text>
	<text transform="matrix(1 0 0 1 249.087 800.8446)" class="st2 st6">3.435</text>
</g>
<g class="st4">
	<circle class="st5" cx="374.5" cy="799.8" r="3.2"/>
	<text transform="matrix(1 0 0 1 333.0847 814.0177)" class="st2 st6">Congo (Kinshasa):</text>
	<text transform="matrix(1 0 0 1 361.9836 826.0177)" class="st2 st6">3.207</text>
</g>
<g class="st4">
	<circle class="st5" cx="446.6" cy="124.9" r="3.2"/>
	<text transform="matrix(1 0 0 1 422.1254 139.0649)" class="st2 st6">Zimbabwe:</text>
	<text transform="matrix(1 0 0 1 434.0663 151.0649)" class="st2 st6">3.204</text>
</g>
<g class="st4">
	<circle class="st5" cx="297.2" cy="522.4" r="3.1"/>
	<text transform="matrix(1 0 0 1 267.1977 536.5374)" class="st2 st6">Sierra Leone:</text>
	<text transform="matrix(1 0 0 1 284.705 548.5374)" class="st2 st6">3.138</text>
</g>
<g class="st4">
	<circle class="st5" cx="115.1" cy="212" r="2.4"/>
	<text transform="matrix(1 0 0 1 94.2656 225.376)" class="st2 st6">Lebanon:</text>
	<text transform="matrix(1 0 0 1 102.6079 237.376)" class="st2 st6">2.392</text>
</g>
<g class="st4">
	<circle class="st5" cx="521.8" cy="315.3" r="1.9"/>
	<text transform="matrix(1 0 0 1 493.9811 328.1434)" class="st2 st6">Afghanistan:</text>
	<text transform="matrix(1 0 0 1 509.2668 340.1434)" class="st2 st6">1.859</text>
</g>
<text transform="matrix(1 0 0 1 217.9386 222.9114)" class="st1 st9 st10">My Happy Little World</text>
<text transform="matrix(1 0 0 1 166.4985 257.1341)"><tspan x="0" y="0" class="st1 st9 st11">A visual showing all Countries by their Happiness Index. </tspan><tspan x="-33.9" y="14.4" class="st1 st9 st11">I have annotated some personal information to see how happy is the  </tspan><tspan x="104.5" y="28.8" class="st1 st9 st11">World I know.</tspan></text>
</svg>
