<svg xmlns="http://www.w3.org/2000/svg" xmlns:xlink="http://www.w3.org/1999/xlink" xml:space="preserve" version="1.1" style="shape-rendering:geometricPrecision;text-rendering:geometricPrecision;image-rendering:optimizeQuality;" viewBox="0 0 266 403.75" x="0px" y="0px" fill-rule="evenodd" clip-rule="evenodd"><defs><style type="text/css">
   
    .fil0 {fill:black}
   
  </style></defs><g><path class="fil0" d="M190 255c15,-39 46,-17 66,-75 7,-22 5,9 2,14 16,-11 5,12 3,18 7,7 0,11 -6,21 9,9 2,10 -7,20 5,8 0,7 -9,11 7,17 -29,8 -35,7 6,20 22,36 46,47 -4,0 -8,1 -11,1 -5,7 -4,5 -10,0 -4,8 -7,1 -14,-5 -9,7 -15,-16 -21,-27 -1,3 0,6 1,9 -49,-17 -11,-61 -45,-51 1,-2 2,-3 3,-5 2,-14 20,-25 37,15z"/><path class="fil0" d="M221 176c0,-24 7,6 5,12 13,-15 8,10 8,16 7,1 3,6 -2,10 -7,7 -15,10 -23,14 -9,6 -15,12 -19,21 -8,-17 28,-25 31,-73z"/><path class="fil0" d="M40 217c15,-39 46,-17 66,-75 7,-22 5,9 2,14 16,-11 5,12 2,18 8,7 1,11 -5,21 9,9 2,10 -7,20 5,8 0,7 -10,11 8,17 -28,8 -34,7 6,20 22,36 46,47 -4,0 -8,1 -11,1 -5,7 -4,5 -10,0 -4,8 -7,1 -14,-5 -9,7 -16,-16 -21,-27 -1,3 0,6 1,8 -50,-16 -11,-60 -45,-50 1,-2 2,-3 3,-5 2,-14 20,-25 37,15z"/><path class="fil0" d="M70 137c1,-23 8,7 6,13 12,-15 8,10 8,16 7,1 3,6 -2,10 -7,6 -15,10 -23,14 -9,6 -15,12 -19,21 -8,-17 28,-25 30,-74z"/><path class="fil0" d="M145 88c14,-39 45,-16 65,-74 7,-23 6,8 2,14 16,-12 5,11 3,17 8,7 1,12 -5,21 8,10 2,10 -8,21 5,7 1,6 -9,10 8,17 -28,9 -35,7 7,20 22,36 46,47 -3,1 -7,1 -11,2 -4,6 -3,4 -10,-1 -4,9 -6,2 -13,-5 -10,8 -16,-16 -21,-27 -1,3 0,6 1,9 -50,-17 -11,-61 -45,-51 1,-2 2,-3 3,-5 1,-14 19,-25 37,15z"/><path class="fil0" d="M175 9c1,-24 8,6 6,13 12,-16 8,10 7,16 8,0 4,6 -1,10 -7,6 -15,9 -23,14 -9,5 -15,11 -19,20 -9,-17 27,-25 30,-73z"/></g><text x="0" y="338" fill="#000000" font-size="5px" font-weight="bold" font-family="'Helvetica Neue', Helvetica, Arial-Unicode, Arial, Sans-serif">Created by Wahyuntitle</text><text x="0" y="343" fill="#000000" font-size="5px" font-weight="bold" font-family="'Helvetica Neue', Helvetica, Arial-Unicode, Arial, Sans-serif">from the Noun Project</text></svg>
