<svg xmlns="http://www.w3.org/2000/svg" data-name="레이어 1" viewBox="0 0 100 125" x="0px" y="0px"><path d="m58.92,20.75c-1.05.15-1.82.59-2.43,1.38l-.45.59-.89-.32c-2.1-.78-3.79-.62-7.08.64-2.74,1.06-3.74,1.12-7.61.44-2.27-.4-3.68-.53-5.4-.53-3.16,0-4.85.44-7.56,1.89-4.27,2.31-8.88,7.91-10.54,12.77-.64,1.89-.89,3.37-1.16,6.98-.34,4.62-.84,8.23-1.53,11.18-.39,1.68-.6,2.1-1.45,2.84-.56.51-.87,1-1.42,2.33-.37.93-.64,1.72-.6,1.78s.5-.06,1.02-.26c1.42-.55,1.37-.55,1.16-.09-.24.53.05.53.89-.04.45-.28.76-.7,1.03-1.32.34-.81.35-1,.19-1.63-.31-1.25-.19-2.21.55-4.79.84-2.88,1.6-6.11,1.87-7.96.1-.7.24-1.27.32-1.27s.15.13.15.26c0,.61.9,3.61,2.05,6.79,1.98,5.58,2.42,8.44,2.24,14.87-.13,4.65-.32,6.64-.92,8.89-.4,1.51-.45,1.89-.29,2.33.1.28.32.57.48.62.6.23,6.93.13,7.17-.11.4-.38.26-1.21-.44-2.42-.35-.62-.71-1.42-.81-1.76-.26-1.1-.16-4.01.24-6.81.34-2.35.93-4.88,1.16-4.88.13,0,2.82,4.33,3.66,5.92.5.91,1.13,2.31,1.42,3.12.47,1.31.53,1.7.61,3.88.13,3.16.03,3.06,3.03,3.22,2.95.15,4.67-.04,4.98-.53.5-.79-.08-2.21-2.93-7.19-3.08-5.39-4.21-8.42-3.69-9.86.27-.76.92-1.06,3.72-1.68,3.26-.74,5.67-1.85,7.32-3.37.39-.38.77-.62.84-.59.21.17.15,3.93-.11,5.98-.5,3.92-1.1,6.15-2.84,10.69-1.16,3.03-1.42,3.99-1.43,5.3,0,.61.08.85.31,1,.47.28,7.16.25,7.4-.04.35-.42.21-1.25-.47-2.74-.81-1.78-.77-2.29.16-3.75,1.11-1.74,3.55-7.23,4.64-10.5.23-.68.47-1.31.53-1.38.42-.55,1.97,1.82,3.22,4.88,2.14,5.24,2.66,7.96,1.97,10.4-.53,1.89-.56,2.25-.21,2.76.29.42.44.45,2.31.55,1.08.06,2.66.06,3.48.04,1.34-.08,1.52-.11,1.74-.51.32-.59.1-1.19-.89-2.42-.45-.55-.89-1.25-1-1.55-.13-.36-.21-1.61-.21-3.41l-.02-2.84-1.18-5.49c-.64-3.01-1.53-6.72-1.98-8.23-.87-3.01-1.32-6.11-1.24-8.49l.05-1.32,1.42,1.02c.77.57,1.85,1.44,2.4,1.93,1.69,1.53,2.27,1.95,2.82,1.95.87,0,1.1-.64,1.05-2.95l-.03-1.93.81-.13c.44-.08,1.02-.08,1.29,0,.44.11.52.25.76,1.27l.27,1.14,1.66,1.27,1.64,1.25.32,1.61c.18.89.47,2.84.66,4.35.18,1.51.44,3.63.56,4.73.53,4.33,1.34,6.98,2.47,8.17,1.42,1.49,3.72,1.46,4.55-.08.44-.79.39-2.8-.06-3.33-.26-.3-.29-.3-.52.04-.13.21-.18.53-.13.72.15.57-.35,1.29-.87,1.29-.6,0-1.13-.66-1.42-1.8s-.31-5.07-.03-9.23c.21-3.46-.05-3.2,2.22-2.21,2.39,1.04,5.45,1.68,5.29,1.1-.03-.11-.42-.36-.87-.53-1.18-.47-3.05-1.61-4.5-2.74-2.05-1.59-1.95-1.42-2.06-4.01-.16-3.93-.69-6.45-2.92-13.94-1.21-4.03-1.95-5.85-3.21-7.78-1.6-2.44-2.64-2.93-6.4-2.93h-2.34l-.35-.64c-.18-.34-.61-.78-.93-.95-1.11-.62-4.93-1.12-6.69-.87Z"/><text x="0" y="115" fill="#000000" font-size="5px" font-weight="bold" font-family="'Helvetica Neue', Helvetica, Arial-Unicode, Arial, Sans-serif">Created by D 빈센트</text><text x="0" y="120" fill="#000000" font-size="5px" font-weight="bold" font-family="'Helvetica Neue', Helvetica, Arial-Unicode, Arial, Sans-serif">from the Noun Project</text></svg>