<?xml version="1.0" encoding="utf-8"?>
<!-- Generator: Adobe Illustrator 19.2.1, SVG Export Plug-In . SVG Version: 6.00 Build 0)  -->
<svg version="1.1" id="layer" xmlns="http://www.w3.org/2000/svg" xmlns:xlink="http://www.w3.org/1999/xlink" x="0px" y="0px"
	 viewBox="0 0 652 652" style="enable-background:new 0 0 652 652;" xml:space="preserve">
<style type="text/css">
	.st0{fill:#AB2318;}
	.st1{fill:#451500;}
	.st2{fill:#FFFFFF;}
</style>
<g>
	<path class="st0" d="M150,373c-9.8,0-17.8-8-17.8-17.8v-66.6c0-9.8,8-17.8,17.8-17.8h452.9c9.8,0,17.8,8,17.8,17.8v66.6
		c0,9.8-8,17.8-17.8,17.8H150z"/>
	<path class="st1" d="M38.5,373c-9.8,0-17.8-8-17.8-17.8v-66.6c0-9.8,8-17.8,17.8-17.8H105c9.8,0,17.8,8,17.8,17.8v66.6
		c0,9.8-8,17.8-17.8,17.8H38.5z"/>
	<path class="st2" d="M91.8,282.3c0.7,0.1,3.7,1.1,3.7,1.1s2.9,4.2,3.6,5.1c0.7,0.9,0.4,1.6,0.4,1.6l-1.4,5.2c0,0,0.5,0.4,0,0
		c-0.5-0.4-4.4-0.1-5.3,0c-0.9,0.1,0.8-1.1,1.2-1.5c0.4-0.4,2.1-1.6,1.9-2.2c-0.2-0.7-2.7-5.5-2.7-5.5s-4.4,0-6.4,0.2
		c-2.1,0.2-6.4,4.6-6.4,4.6l-1.6,6.2c0,0,0.6,1.2,1.5,1.9c0.9,0.7,3.5,0.5,4.5,0.4c1-0.1,0.6,1.1-0.2,1.8c-0.8,0.7-3.8,0.7-3.8,0.7
		l1.2,0.4c1.4,1.2,3.9,7.6,5.4,9.1c1.5,1.5,0,8.9-2.2,11c-2.1,2.1-3.1,6.7-4.4,8c-1.3,1.3-2.6,0.8-1.3,2.1c1.3,1.3,0.7,3,0.9,4.1
		c0.1,0.8,0.4,2.1,1,2.8c0.6,0.6,10.4,7.4,14.4,7.7c0.7,0.1,0.7,3.5-3.3,7.8c0,0-0.7,2.5-7.4,2.7c-7.3,0.2-14.6-1-16.2-1
		c-1.7,0-6.5-2.7-6.5-2.7c-0.9,0-15.2-21.3-15.2-22.8c0-1.5-1.1-5.5-1.1-6.9c0-1.5,1.7-15,1.4-16.6c-0.2-1.3,0.5-1.6,1.9-3.1
		c1.5-1.5,4.1-4,5.2-5c0.5-0.5,4-0.4,8.3-1.3l0.7-0.3l-0.9-0.4c0,0-1.4-1.7-3.6-1.6c-2.2,0.1-3,0.2-1.8-0.2c1.2-0.5,3.2-2.1,3.2-2.1
		l4.9,2.1H68l4.6-3.8l10.4-8.5L91.8,282.3 M59.4,309.1c-1.2,0.2-3.2-0.1-4.2,1.6l-1.8,7.7c0,0,0.2,7.8,0.4,9.3
		c0.2,1.5,2.2,6.5,3.3,7.7c1,1,1.9,4.3,3.6,6c0.5,0.5,1.4,0.7,1.8,1.2c0.7,1,1.3,0.3,0-1.6c-4.8-7.1-5.8-13.2-6-14.2
		c-0.5-2.3-0.1-7.6,0-9.8c0.1-1.1,0.9-3.7,1.6-4.2c0.4-0.3,3.6-0.6,4.3-0.8c1-0.3,2.5-0.3,3.4-0.5c3-0.6,7.5,0.9,7.9,1.1
		c4.5,2.1,2.8,2.8,2.8,3c0.1,0.3-6.3,13-6.2,13.6c0,0.6,0.3,7,0.9,8.8c0.2,0.5,2.2,5.3,2.5,6.2c1.6,3.8-3.4-0.6-3.7-0.8
		s-5.9-11.5-6.8-13.9c-0.6-1.6-0.4-4-0.3-4.6c0.2-0.7-0.3-6.2,0.7-6.9c0.7-0.5,2.7-0.8,4.2-0.2c1.4,0.6,2.1,2.1,1.9,2.5
		c-0.1,0.3-2.2,7.2-2.6,6.6c-0.1-0.2-0.1-2.4-0.4-2.6c-0.3-0.2-0.8-0.6-1-0.3c-0.2,0.3-0.6,2.6-0.4,3.4c1,3.8,2.1,2.6,2.6,1.9
		c0.6-1.1,3.6-9.5,3.6-10.1c-0.1-1.3-1-3.4-3-4.1c-1.2-0.4-5.2-0.2-6.6,0.6c-2.1,1.1-2,10.9-1.6,12.3c0.4,1.4,6.2,12.8,6.5,13.7
		c0.6,1.7,4.7,5.8,5.4,6.1c0.3,0.2,5.9,2.3,6.6,1.3c0.3-0.5,0.2-1.8-1.2-2.7c-1.3-0.9-4.5-10.2-4.5-10.9c0-0.7-0.8-5.9-0.3-6.9
		c1.1-2.1,8.7-13.5,7.8-14.4c-1.1-1.2-4.5-7-6.1-4.8c-1.4,2-7.3-0.1-9-1.3C65.3,308,61.2,308.8,59.4,309.1 M81.5,353.2
		c2.2,0,8.4-3.3,6.1-4.8c-1.4-1-3.1-2.2-6.3-4.6c-1.4-1.1-2-0.8-2.4-0.8c-1.3,0,0.8-2.1,0.1-3.8c-0.8-1.8-1.2-4.6-1.8-5.3
		c-0.6-0.6-0.4-4,1-5.4c1.5-1.5,3.6-5.8,4.8-7.4c1.4-2,2.3-6.3,1.8-6.8c-0.6-0.5-3.1-5.8-4.2-6.9c-0.7-0.7-1.9-2.5-3.1-3.9l-0.3-0.4
		l-1.2,0.7c-1.2,0.7-2.7,2.1-2.7,2.1s-1,0.3-3.4-0.1c-1.3-0.3-1.7-1.2-1.7-2.2c0-1-0.7-0.8-0.7-0.8s-10.9,0.6-11.8,1.1
		c-0.9,0.5-4.7,5.7-4.7,5.7s-2,19.9-0.5,21.5c1.9,1.9,10.6,17.3,12.4,19.1C64.8,352.6,79.3,353.2,81.5,353.2"/>
	<path class="st2" d="M234.3,328.9c-0.8,0-1.5,0.7-1.5,1.5v16.2c0,0.8-0.7,1.5-1.5,1.5h-6.4c-0.8,0-1.5-0.7-1.5-1.5v-50.5
		c0-0.8,0.7-1.5,1.5-1.5h6.4c0.8,0,1.5,0.7,1.5,1.5v22.6c0,0.8,0.7,1.5,1.5,1.5h24.8c0.8,0,1.5-0.7,1.5-1.5v-22.6
		c0-0.8,0.7-1.5,1.5-1.5h6.4c0.8,0,1.5,0.7,1.5,1.5v50.5c0,0.8-0.7,1.5-1.5,1.5h-6.4c-0.8,0-1.5-0.7-1.5-1.5v-16.2
		c0-0.8-0.7-1.5-1.5-1.5H234.3z M300.3,294.5c0.8,0,1.5,0.7,1.5,1.5v50.5c0,0.8-0.7,1.5-1.5,1.5h-6.4c-0.8,0-1.5-0.7-1.5-1.5v-50.5
		c0-0.8,0.7-1.5,1.5-1.5H300.3z M405.4,349c-16.5,0-27.9-12.5-27.9-27.6s11.6-27.8,28.1-27.8c16.5,0,27.9,12.5,27.9,27.6
		S421.9,349,405.4,349 M405.4,302.3c-10.6,0-18.1,8.5-18.1,19c0,10.5,7.6,19.1,18.2,19.1c10.6,0,18.1-8.5,18.1-19
		C423.6,310.9,416,302.3,405.4,302.3 M469.2,346.6c0,0.8-0.7,1.5-1.5,1.5h-6.4c-0.8,0-1.5-0.7-1.5-1.5v-41.8c0-0.8-0.7-1.5-1.5-1.5
		h-13.9c-0.8,0-1.5-0.7-1.5-1.5v-5.7c0-0.8,0.7-1.5,1.5-1.5h40.4c0.8,0,1.5,0.7,1.5,1.5v5.7c0,0.8-0.7,1.5-1.5,1.5h-13.9
		c-0.8,0-1.5,0.7-1.5,1.5V346.6z M502.5,296.1c0-0.8,0.7-1.5,1.5-1.5h6.4c0.8,0,1.5,0.7,1.5,1.5v42c0,0.8,0.7,1.5,1.5,1.5h25.1
		c0.8,0,1.5,0.7,1.5,1.5v5.5c0,0.8-0.7,1.5-1.5,1.5H504c-0.8,0-1.5-0.7-1.5-1.5V296.1z M593.2,301.4c0,0.8-0.7,1.5-1.5,1.5h-27.3
		c-0.8,0-1.5,0.7-1.5,1.5v14.3c0,0.8,0.7,1.5,1.5,1.5h20.4c0.8,0,1.5,0.7,1.5,1.5v5.4c0,0.8-0.7,1.5-1.5,1.5h-20.4
		c-0.8,0-1.5,0.7-1.5,1.5v8c0,0.8,0.7,1.5,1.5,1.5H592c0.8,0,1.5,0.7,1.5,1.5v5.4c0,0.8-0.7,1.5-1.5,1.5H555c-0.8,0-1.5-0.7-1.5-1.5
		v-50.5c0-0.8,0.7-1.5,1.5-1.5h36.7c0.8,0,1.5,0.7,1.5,1.5V301.4z M364.2,312.5c0-11-7.9-18-20.4-18h-19.6c-0.8,0-1.5,0.7-1.5,1.5
		v50.5c0,0.8,0.7,1.5,1.5,1.5h6.4c0.8,0,1.5-0.7,1.5-1.5v-14.2c0-0.8,0.7-1.5,1.5-1.5h9.1C354.6,330.9,364.2,324.6,364.2,312.5
		 M333.7,322.4c-0.8,0-1.5-0.7-1.5-1.5v-16.2c0-0.8,0.7-1.5,1.5-1.5h9.4c7,0,11.6,3.3,11.6,9.6c0,5.7-4.4,9.7-11.6,9.7H333.7z
		 M183.3,302.3c5.5,0,10,2.3,13.9,5.7c0.6,0.5,1.6,0.5,2.2-0.2l4-4.7c0.6-0.6,0.5-1.6-0.2-2.2c-4.8-4.2-10.8-7.3-19.8-7.3
		c-16.2,0-27.7,12.5-27.7,27.8v-0.3c0,15.3,11.4,27.8,27.7,27.8c9,0,15-3.1,19.8-7.3c0.6-0.6,0.7-1.5,0.2-2.2l-4-4.7
		c-0.5-0.6-1.5-0.7-2.2-0.2c-3.9,3.4-8.3,5.7-13.9,5.7c-10.3,0-17.7-8.4-17.7-19C165.7,310.7,173.1,302.3,183.3,302.3"/>
</g>
</svg>
