<?xml version="1.0" encoding="UTF-8"?>
<svg width="1200pt" height="1200pt" version="1.1" viewBox="0 0 1200 1200" xmlns="http://www.w3.org/2000/svg">
 <g>
  <path d="m543.17 238.49c-23.652-25.332-50.797-36.359-83.137-38.16-44.051-2.4492-76.859 15.852-77.184 16.02-11.977 6.168-29.594 18.48-29.125 25.246 0.070313 1.0547 1.3789 2.3047 3.2891 3.6367 1.5977-0.3125 3.1562-0.5625 4.6328-0.67188 0.96094-0.058594 1.9805-0.097656 3.0703-0.097656 12.469 0 33.191 4.1992 42.551 7.2109 6.1445 1.9805 11.316 4.4023 15.887 6.5391 2.7461 1.3086 5.1953 2.4375 7.4883 3.3242 1.7266-1.3086 4.6797-4.8359 6.9258-7.5117 2.9023-3.4453 6.1914-7.3555 10.055-11.039 6.9102-6.5508 17.004-10.297 27.73-10.297 8.4492 0 15.684 2.3867 19.859 6.5625 8.4258 8.4375 11.746 23.207 9.1094 40.523-3 19.633-20.23 36.383-32.941 47.27-6.8867 5.9023-15.145 8.9023-24.539 8.9023-4.2852 0-8.1484-0.61328-11.23-1.1992-0.49219 2.5938-0.94922 6.2031-1.3438 9.3242-0.73047 5.7344-1.6328 12.863-3.2539 20.688-4.8242 23.352-17.629 30.457-35.34 40.273-2.3984 1.332-4.9688 2.7344-7.668 4.2852-7.6914 4.4023-15.098 6.5391-22.609 6.5391-6.5156 0-12.277-1.6562-17.566-3.9102-0.78125 0.20313-1.5352 0.44531-2.3398 0.5625-27.324 3.9727-52.188 21.395-62.242 32.125-11.508 12.301-31.621 46.246-26.508 94.117 3.5039 32.746 14.629 80.605 15.504 84.504 1.7383-4.8945 6.5156-18.145 9.2891-24.984 9.4688-23.363 42.949-59.293 56.746-72.098 13.105-12.121 41.652-20.484 92.531-27.086 40.141-5.2188 67.895-16.367 94.812-38.184 0.92578-0.75781 1.8359-1.4766 2.7617-2.2422 28.609-24.012 54.348-62.449 54.348-112.29 0.027343-51.055-19.473-86.371-39.562-107.89z"/>
  <path d="m489.21 245.26c-2.5312-2.543-7.8125-4.0781-13.848-4.0781-7.3906 0-15.926 2.3164-21.875 7.9805-9.8867 9.3828-16.211 21.18-22.633 21.18-0.58984 0-1.1758-0.10938-1.7656-0.3125-7.0781-2.4727-14.508-7.0664-24.422-10.262-7.5703-2.4375-22.414-5.4961-33.574-6.4805-2.293-0.20312-4.4883-0.32422-6.3711-0.32422-0.88672 0-1.7266 0.023437-2.4961 0.085937-0.10938 0-0.22656 0.023437-0.33594 0.035156-1.957 0.16797-4.1289 0.60156-6.457 1.2344-9.9102 2.7227-22.141 8.9023-27.516 11.461-5.1719 2.4492-6.3711 3.4336-9.0586 3.4336-0.80469 0-1.7539-0.085938-2.9766-0.25391-1.6328-0.22656-9.3008-0.37109-19.391-0.37109-22.57 0-57.301 0.75781-63.973 3.2031-9.6719 3.5391-12.492 11.328-12.852 19.453-0.28906 6.8633-0.33594 11.473 0.92578 11.473 0.23828 0 0.51562-0.16797 0.85156-0.50391 1.9688-1.9688 10.859-9.3594 13.871-9.3594 0.25391 0 0.48047 0.046876 0.625 0.15625 2.125 1.4141-3.1797 8.4844-8.8438 14.508-5.6523 6.0117-7.0664 13.789-6.1797 20.16 1.0664 7.6914 6.5273 16.453 22.117 17.688 21.215 1.6797 18.371-0.70703 24.395 5.293 5.4961 5.4961 19.246 26.051 15.66 26.051-0.34766 0-0.83984-0.19141-1.5117-0.58984-7.7773-4.5977-13.715-12.781-24.758-19.465-2.7109-1.6328-5.5078-2.1836-8.1016-2.1836-5.5078 0-9.9375 2.543-9.9375 2.543s-9.5508 6.3711-4.2461 17.688c5.3047 11.316 5.207 15.383 5.3164 22.465 0.16797 12.203-7.7773 18.926-6.9258 25.645 0.40625 3.0586 2.3398 5.3281 6.4922 5.3281 3.3828 0 8.2422-1.5117 14.93-5.3281 14.855-8.4961 31.488-20.16 42.445-25.465 6.9727-3.3711 13.656-6.6016 21.406-6.6016 4.4531 0 9.2539 1.0664 14.676 3.7695 5.125 2.5664 10.129 5.7617 15.395 8.3164 1.5586 0.75781 3.1797 1.4414 4.8008 2.0625 1.6328 0.61328 3.2773 1.1055 4.9805 1.5 2.3633 0.5625 4.8008 0.96094 7.3672 0.96094 5.5078 0 11.555-1.5117 18.395-5.4258 22.273-12.73 34.309-16.633 38.902-38.914 4.4648-21.59 3.2656-37.535 9.3008-37.535 0.20312 0 0.39453 0.011719 0.61328 0.046876 3.3125 0.51562 8.4258 1.9062 14.23 1.9062 6 0 12.73-1.4766 19.008-6.8633 12.395-10.609 27.59-25.824 30.07-42.086 2.4805-16.246-1.0742-27.574-6.7266-33.223z"/>
  <path d="m1141.1 330.18s-25.777-53.062-56.543-63.672c-21-7.2344-39.445-2.9414-49.043 8.3398-70.297-23.746-119.76 5.6758-136.51 44.902-18.07 42.277-2.7227 103.66 73.656 138.5 43.512 19.859 69.887 52.066 72.348 88.391 1.957 28.559-11.426 55.523-34.895 70.355-26.41 16.715-58.789 6.6719-82.906-6.0234-0.035157-0.10937-0.046875-0.22656-0.058594-0.32422-6.3828-33.961-38.219-74.281-82.777-87.719-44.555-13.441-124.51-16.262-178.27-22.633-46.297-5.4844-112.88-29.977-130.5-36.672-0.58984 0.50391-1.1289 1.0312-1.7266 1.5352-29.137 24.469-58.668 36.73-101.93 42.348-30.445 3.9609-72.66 10.836-87.852 24.898-14.891 13.789-46.223 48.215-54.66 69.035-2.7227 6.7305-4.8594 12.758-6.5625 17.617-3.7305 10.547-3.7305 10.547-7.7148 20.52 0 8.1719 2.7852 20.676 7.1641 32.566-2.1367 10.738-7.2461 29.629-19.078 48.938-5.7734 9.4219-89.605 139.57-89.605 139.57s-19.055 29.352-33.996 29.855c-14.941 0.52734-32.965-2.0508-38.629 2.5781-5.6641 4.6445-36.562 27.816-33.48 39.145 3.6602 13.43 72.109 11.832 81.371 7.2109 9.2773-4.6445 6.6953-13.379 17.242-14.426 10.559-1.0195 25.5-3.0977 53.316-25.754 18.312-14.914 81.301-68.258 135.11-116.47-22.285-26.578-40.031-57.406-50.977-78.516 2.6523 1.1992 5.6992 2.375 9.0117 3.5625 10.945 20.316 27.098 47.34 46.633 70.766 8.9766 10.766 13.727 20.785 23.93 29.039 44.234 35.727 48.844 80.883 48.844 90.137v1.668l3.5742 0.92578c-5.3984 3.6016-8.2578 4.957-14.461 6.5273-6.3828 1.6328-12.395 6.3945-21.457 11.281-12.32 6.6211-15.668 29.816-17.191 29.816h73.801c3.2266 0 13.98-16.512 24.098-19.043 4.8242-1.2227 10.285-6.4219 14.27-11.242 4.1406-5.0039 5.9297-10.945 4.9219-15.012-2.6172-10.441-13.586-44.688-20.629-62.328-7.1406-17.809-7.1641-42.949-0.070312-65.27 2.9023-9.1562 7.5117-25.621 10.246-44.328 75.758-12.312 136.78-59.102 189-42.266 0.21484 0.070312 0.44531 0.13281 0.67188 0.20312-7.7266 26.473-13.344 67.164-0.44531 117.9 6.6836 26.27 18.551 53.902 3.3359 68.496-15.227 14.594-36.59 22.176-56.375 29.184-21.492 7.6211-40.586 31.02-29.09 34.836 15.215 5.0898 66.602-1.2227 66.602-1.2227s29.184-19.656 43.141-24.109c13.969-4.4414 38.699-10.152 37.43-26.004-1.2617-15.863-8.8789-31.738 5.0742-49.488 9.5273-12.133 34.441-35.207 53.723-55.094-17.27-10.715-29.172-19.211-30.359-20.062l-0.51562-0.46875c-21.145-23.93-37.441-45.059-48.91-63.312 2.7461 0.55078 5.5547 1.0664 8.3867 1.6094 10.309 15.637 24.816 34.512 44.941 57.324 1.9805 1.3906 13.992 9.8398 30.926 20.27 26.113 16.078 63.926 36.898 94.871 43.969 22.523 5.1367 43.945 6.6602 62.844 8.0039 26.426 1.8828 47.27 3.3711 57.996 14.09 21.84 21.828 29.27 36.434 24.133 47.352-5.543 11.773-24.684 20.688-31.621 21.469-4.3203 0.45703-11.195 9.6367-14.879 15.18-2.0352 3-3.2383 19.367-3.7266 19.367h68.543c3.0586 0 13.152-23.879 23.016-33.73 2.293-2.3281 4.1055-5.4609 5.4727-6.7578 1.1875-1.1055 2.293-2.8672 2.7344-3.4219-0.12109-0.34766-0.35938-1.668-0.58984-2.207-0.38281-0.88672-0.83984-2.0156-1.3672-3.4688-1.0195-2.8555-3.4219-7.6211-6.2031-13.141-5.6641-11.207-12.695-25.152-14.855-36-1.2969-6.5273-1.1875-12.66-1.0664-18.613 0.16797-8.5078 0.3125-15.863-4.0547-21.59-6.457-8.4102-13.512-9.5391-30.551-12.227-2.4961-0.39453-5.1953-0.80469-8.1016-1.2969-20.52-3.4219-57.422-11.93-74.125-30.469-10.801-12-21.266-31.344-31.957-53.438 0.15625-0.19141 0.3125-0.37109 0.43359-0.5625 7.8711-13.332 9.5273-52.598 5.8438-84.938 14.734 6.8398 31.738 12.191 48.926 12.191 12.996 0 26.113-3.0469 38.398-10.824 27.336-17.293 42.926-48.613 40.668-81.73-2.7734-41.016-31.801-77.051-79.621-98.867-68.773-31.391-83.125-85.391-67.355-122.28 14.363-33.648 57.289-58.727 119.03-38.762-0.71875 2.7344-1.0664 5.6523-1.0078 8.7461 0 0-9.5625 50.41 59.426 49.344 31.824-0.49219 45.07 0.82812 50.207 2.3984l-3.5273-15.133z"/>
 </g>
</svg>
